<svg version="1.1" xmlns="http://www.w3.org/2000/svg" viewBox="0 0 598 446" width="1196" height="892">
  <!-- svg-source:excalidraw -->
  
  <defs>
    <style class="style-fonts">
      @font-face {
        font-family: "Virgil";
        src: url("https://file%2B.vscode-resource.vscode-cdn.net/Users/yannick.habecker/.vscode/extensions/pomdtr.excalidraw-editor-3.5.1/public//dist/excalidraw-assets/Virgil.woff2");
      }
      @font-face {
        font-family: "Cascadia";
        src: url("https://file%2B.vscode-resource.vscode-cdn.net/Users/yannick.habecker/.vscode/extensions/pomdtr.excalidraw-editor-3.5.1/public//dist/excalidraw-assets/Cascadia.woff2");
      }
    </style>
  </defs>
  <rect x="0" y="0" width="598" height="446" fill="#ffffff00"></rect><g stroke-linecap="round" transform="translate(10 10) rotate(0 289 213)"><path d="M32 0 M32 0 C136.55 -0.16, 241.32 0.15, 546 0 M32 0 C165.48 1.15, 299.18 1.31, 546 0 M546 0 C568.93 1.89, 579.18 11.5, 578 32 M546 0 C565.24 -0.55, 577.16 10.8, 578 32 M578 32 C578.38 164.63, 577.96 296.22, 578 394 M578 32 C578.28 168.39, 577.77 305.43, 578 394 M578 394 C579.9 415.99, 566.18 425.73, 546 426 M578 394 C579.11 414.85, 568.84 424.96, 546 426 M546 426 C421.24 426.97, 297.91 427.96, 32 426 M546 426 C353.6 425.05, 160.52 425.28, 32 426 M32 426 C8.99 424.17, -0.27 414.04, 0 394 M32 426 C8.97 424.8, -0.7 416.84, 0 394 M0 394 C0.95 274.19, 1 151.99, 0 32 M0 394 C-0.31 249.77, -0.79 107.35, 0 32 M0 32 C0.53 10.75, 9.97 -0.28, 32 0 M0 32 C2.18 8.57, 12.83 0.08, 32 0" stroke="#000000" stroke-width="1" fill="none"></path></g><g transform="translate(56.28010559082031 211) rotate(0 242.7198944091797 12)"><text x="242.7198944091797" y="0" font-family="Virgil, Segoe UI Emoji" font-size="20px" fill="#000000" text-anchor="middle" style="white-space: pre;" direction="ltr" dominant-baseline="text-before-edge">                            Exploration-Notebook</text></g><g stroke-linecap="round" transform="translate(25.634699856536827 297.377677341397) rotate(0 123 56.5)"><path d="M28.25 0 M28.25 0 C87.8 0.8, 148.68 0.13, 217.75 0 M28.25 0 C71.02 1.2, 114.91 2.64, 217.75 0 M217.75 0 C237.76 0.83, 244.18 8.94, 246 28.25 M217.75 0 C235.75 0.14, 247.47 9.43, 246 28.25 M246 28.25 C246.07 42.04, 247.73 52.98, 246 84.75 M246 28.25 C246.25 42.48, 247.33 58.88, 246 84.75 M246 84.75 C244.84 103.32, 237.55 112.58, 217.75 113 M246 84.75 C247.51 102.55, 235.25 113.78, 217.75 113 M217.75 113 C146.81 111.99, 74.51 111.43, 28.25 113 M217.75 113 C171.06 114.65, 123.5 112.78, 28.25 113 M28.25 113 C9.15 111.71, -1.48 102.54, 0 84.75 M28.25 113 C8.72 114.51, 0.77 103.46, 0 84.75 M0 84.75 C1.02 62.56, 1.56 42.06, 0 28.25 M0 84.75 C-0.83 70.18, 0.36 53.83, 0 28.25 M0 28.25 C-0.7 9.14, 11.31 -1.83, 28.25 0 M0 28.25 C2.16 9.5, 7.35 -2.25, 28.25 0" stroke="#000000" stroke-width="1" fill="none"></path></g><g transform="translate(122.77620223690792 345.4776773413969) rotate(0 25.858497619628906 8.399999999999977)"><text x="25.858497619628906" y="0" font-family="Virgil, Segoe UI Emoji" font-size="14.632855805196213px" fill="#000000" text-anchor="middle" style="white-space: pre;" direction="ltr" dominant-baseline="text-before-edge">training</text></g><g stroke-linecap="round" transform="translate(314.51718569415834 288.49550654534505) rotate(0 123 56.5)"><path d="M28.25 0 M28.25 0 C90.21 -0.6, 152.31 -2.02, 217.75 0 M28.25 0 C68.97 1.89, 108.69 1.36, 217.75 0 M217.75 0 C234.76 -0.48, 245.27 9.53, 246 28.25 M217.75 0 C238.05 0.02, 244.16 10.08, 246 28.25 M246 28.25 C247.54 49.33, 245.34 72.02, 246 84.75 M246 28.25 C246.87 40.05, 245.35 51.07, 246 84.75 M246 84.75 C246.96 103.16, 237.89 112.1, 217.75 113 M246 84.75 C244.66 104.36, 238.47 111.76, 217.75 113 M217.75 113 C179.38 113.78, 136.94 115.37, 28.25 113 M217.75 113 C153.11 113.89, 90.01 114.16, 28.25 113 M28.25 113 C7.94 111.96, -0.61 104.89, 0 84.75 M28.25 113 C10.19 112.88, 1.83 105.09, 0 84.75 M0 84.75 C1.54 63.69, -0.91 41.93, 0 28.25 M0 84.75 C0.79 73.4, 0.17 61.83, 0 28.25 M0 28.25 C1.9 7.59, 11.29 0.07, 28.25 0 M0 28.25 C-2.06 7.16, 7.69 1.63, 28.25 0" stroke="#000000" stroke-width="1" fill="none"></path></g><g transform="translate(406.706432825506 336.59550654534496) rotate(0 30.810752868652344 8.399999999999977)"><text x="30.810752868652344" y="0" font-family="Virgil, Segoe UI Emoji" font-size="14.632855805196213px" fill="#000000" text-anchor="middle" style="white-space: pre;" direction="ltr" dominant-baseline="text-before-edge">inference</text></g><g stroke-linecap="round" transform="translate(25.8381035092101 24.755599734645557) rotate(0 123 56.5)"><path d="M28.25 0 M28.25 0 C96.8 -1.39, 166.51 -1.01, 217.75 0 M28.25 0 C76.27 -1.38, 122.2 -2.03, 217.75 0 M217.75 0 C235.86 0.12, 247.28 9.43, 246 28.25 M217.75 0 C234.74 0.67, 247.73 9.31, 246 28.25 M246 28.25 C245.81 50.39, 244.51 69.58, 246 84.75 M246 28.25 C245.96 39.89, 247.02 51.59, 246 84.75 M246 84.75 C247.31 102.68, 235.42 113.68, 217.75 113 M246 84.75 C247.88 102.35, 234.52 114.64, 217.75 113 M217.75 113 C153.28 114.84, 91.69 113.16, 28.25 113 M217.75 113 C142.7 110.62, 67.19 110.74, 28.25 113 M28.25 113 C8.81 114.31, 0.67 103.48, 0 84.75 M28.25 113 C11.24 114.51, 1.75 105.18, 0 84.75 M0 84.75 C-1.07 69.61, -2.51 53.29, 0 28.25 M0 84.75 C-0.5 62.5, 0.8 39.61, 0 28.25 M0 28.25 C1.88 9.49, 7.62 -1.96, 28.25 0 M0 28.25 C-1.73 11.05, 7.41 1.18, 28.25 0" stroke="#000000" stroke-width="1" fill="none"></path></g><g transform="translate(126.09578630950307 72.85559973464558) rotate(0 22.74231719970703 8.399999999999977)"><text x="22.74231719970703" y="0" font-family="Virgil, Segoe UI Emoji" font-size="14.632855805196213px" fill="#000000" text-anchor="middle" style="white-space: pre;" direction="ltr" dominant-baseline="text-before-edge">domain</text></g><g stroke-linecap="round" transform="translate(314.88170791436414 21.58524607225604) rotate(0 123 56.5)"><path d="M28.25 0 M28.25 0 C90.15 0.35, 154.62 2.27, 217.75 0 M28.25 0 C102.12 -1.03, 177.44 -0.73, 217.75 0 M217.75 0 C237.86 0.01, 244.4 10, 246 28.25 M217.75 0 C238.32 -0.11, 247.57 11.22, 246 28.25 M246 28.25 C243.88 44.57, 243.99 63.33, 246 84.75 M246 28.25 C246.15 46.85, 246.33 65.41, 246 84.75 M246 84.75 C244.84 104.26, 238.22 111.93, 217.75 113 M246 84.75 C243.94 105.23, 237.38 114.72, 217.75 113 M217.75 113 C160.41 114.66, 103.5 112.95, 28.25 113 M217.75 113 C177.55 111.25, 138.52 112.43, 28.25 113 M28.25 113 C10.09 112.89, 1.59 104.89, 0 84.75 M28.25 113 C11.16 114.6, -0.87 105.81, 0 84.75 M0 84.75 C-1.82 65.44, 1.98 50.36, 0 28.25 M0 84.75 C1.15 66.66, 1.14 50.44, 0 28.25 M0 28.25 C-1.79 7.46, 7.91 1.42, 28.25 0 M0 28.25 C-2.01 10.6, 9.59 2.21, 28.25 0" stroke="#000000" stroke-width="1" fill="none"></path></g><g transform="translate(357.02909255791883 69.68524607225606) rotate(0 80.85261535644531 8.399999999999977)"><text x="80.85261535644531" y="0" font-family="Virgil, Segoe UI Emoji" font-size="14.632855805196213px" fill="#000000" text-anchor="middle" style="white-space: pre;" direction="ltr" dominant-baseline="text-before-edge">notes / documentation</text></g><g stroke-linecap="round" transform="translate(23.81417220892922 160.04768973070009) rotate(0 123 56.5)"><path d="M28.25 0 M28.25 0 C92.71 -0.13, 162.39 1.71, 217.75 0 M28.25 0 C74.37 0.6, 121.84 1.14, 217.75 0 M217.75 0 C237.83 -0.8, 245.9 7.65, 246 28.25 M217.75 0 C238.7 2.04, 244.24 8.56, 246 28.25 M246 28.25 C244.35 41.82, 244.13 58.26, 246 84.75 M246 28.25 C244.64 49.84, 245.21 71.01, 246 84.75 M246 84.75 C247.04 105.28, 235.27 113.11, 217.75 113 M246 84.75 C245.55 103.38, 238.43 111.83, 217.75 113 M217.75 113 C155.63 113.83, 96.06 112.87, 28.25 113 M217.75 113 C174.32 112.25, 128.44 113.36, 28.25 113 M28.25 113 C9.92 114.01, -1.03 104.99, 0 84.75 M28.25 113 C10.78 115.05, 0.66 103.33, 0 84.75 M0 84.75 C-1.57 67.53, 0.22 50.09, 0 28.25 M0 84.75 C-0.09 69.16, -0.23 55.94, 0 28.25 M0 28.25 C-0.47 9.99, 7.91 1.83, 28.25 0 M0 28.25 C-0.15 11.61, 11.7 0.82, 28.25 0" stroke="#000000" stroke-width="1" fill="none"></path></g><g transform="translate(100.95648330512063 208.1476897307001) rotate(0 45.857688903808594 8.399999999999977)"><text x="45.857688903808594" y="0" font-family="Virgil, Segoe UI Emoji" font-size="14.632855805196213px" fill="#000000" text-anchor="middle" style="white-space: pre;" direction="ltr" dominant-baseline="text-before-edge">preprocessing</text></g></svg>