<svg version="1.1" xmlns="http://www.w3.org/2000/svg" viewBox="0 0 924.1656607184896 473.8071793612862" width="1848.3313214369791" height="947.6143587225724">
  <!-- svg-source:excalidraw -->
  
  <defs>
    <style class="style-fonts">
      @font-face {
        font-family: "Virgil";
        src: url("https://file%2B.vscode-resource.vscode-cdn.net/Users/yannick.habecker/.vscode/extensions/pomdtr.excalidraw-editor-3.5.1/public//dist/excalidraw-assets/Virgil.woff2");
      }
      @font-face {
        font-family: "Cascadia";
        src: url("https://file%2B.vscode-resource.vscode-cdn.net/Users/yannick.habecker/.vscode/extensions/pomdtr.excalidraw-editor-3.5.1/public//dist/excalidraw-assets/Cascadia.woff2");
      }
    </style>
  </defs>
  <rect x="0" y="0" width="924.1656607184896" height="473.8071793612862" fill="#ffffff00"></rect><g stroke-linecap="round" transform="translate(227.64203653862316 371.34426005299906) rotate(0 75.50000000000003 39.5)"><path d="M19.75 0 M19.75 0 C49.47 -1.3, 77.57 0.88, 131.25 0 M19.75 0 C45.6 -0.94, 71.33 -0.82, 131.25 0 M131.25 0 C145.44 0.3, 152.87 6.38, 151 19.75 M131.25 0 C143.72 0.15, 151.44 4.34, 151 19.75 M151 19.75 C151.56 28.96, 151.89 40.8, 151 59.25 M151 19.75 C150.59 30.99, 151.66 42.29, 151 59.25 M151 59.25 C150.61 70.44, 145.79 80.8, 131.25 79 M151 59.25 C148.84 72.52, 145.61 79.3, 131.25 79 M131.25 79 C98.45 80.5, 64.87 76.98, 19.75 79 M131.25 79 C100.2 78.4, 69.66 79.03, 19.75 79 M19.75 79 C7.13 78.08, 1.91 74.26, 0 59.25 M19.75 79 C8.03 77.18, -1.12 71.21, 0 59.25 M0 59.25 C-1.14 50.82, 0.63 41.27, 0 19.75 M0 59.25 C-0.29 46.82, -0.48 35.52, 0 19.75 M0 19.75 C-0.97 7.78, 7.89 -0.23, 19.75 0 M0 19.75 C0.28 7.88, 6.95 0.49, 19.75 0" stroke="#000000" stroke-width="1" fill="none"></path></g><g transform="translate(290.55204020073256 398.34426005299906) rotate(0 12.589996337890625 12.5)"><text x="12.589996337890625" y="0" font-family="Virgil, Segoe UI Emoji" font-size="20px" fill="#000000" text-anchor="middle" style="white-space: pre;" direction="ltr" dominant-baseline="text-before-edge">UI</text></g><g stroke-linecap="round" transform="translate(612.3186984288247 369.2406782397263) rotate(0 75.62921178258591 47.28325056077995)"><path d="M23.64 0 M23.64 0 C60.56 2.06, 98.7 -1.6, 127.62 0 M23.64 0 C63.58 -0.38, 103.67 -1.09, 127.62 0 M127.62 0 C143.94 -0.48, 150.04 8.11, 151.26 23.64 M127.62 0 C144.3 -2.13, 149.53 9.23, 151.26 23.64 M151.26 23.64 C150.25 40.63, 152.09 54.87, 151.26 70.92 M151.26 23.64 C151.58 42.94, 151.36 61.35, 151.26 70.92 M151.26 70.92 C149.46 88.38, 143.25 93.58, 127.62 94.57 M151.26 70.92 C153.02 86.17, 142.87 96.46, 127.62 94.57 M127.62 94.57 C93.5 96.22, 63.29 93.69, 23.64 94.57 M127.62 94.57 C103.25 94.26, 79.13 94.05, 23.64 94.57 M23.64 94.57 C6.82 95.65, -1.92 86.94, 0 70.92 M23.64 94.57 C6.17 95.21, -1.58 84.61, 0 70.92 M0 70.92 C0.09 53.34, 1.19 36.87, 0 23.64 M0 70.92 C0.54 54.38, 0.59 37.21, 0 23.64 M0 23.64 C-1.78 8.51, 8.53 0.78, 23.64 0 M0 23.64 C2.22 7.51, 5.62 0.93, 23.64 0" stroke="#000000" stroke-width="1" fill="none"></path></g><g transform="translate(636.4279593447113 404.02392880050616) rotate(0 51.51995086669922 12.5)"><text x="51.51995086669922" y="0" font-family="Virgil, Segoe UI Emoji" font-size="20px" fill="#000000" text-anchor="middle" style="white-space: pre;" direction="ltr" dominant-baseline="text-before-edge">ML-Service</text></g><g stroke-linecap="round" transform="translate(244.71925544697658 183.01162439472307) rotate(0 75.50000000000003 39.5)"><path d="M19.75 0 M19.75 0 C49.47 -1.3, 77.57 0.88, 131.25 0 M19.75 0 C45.6 -0.94, 71.33 -0.82, 131.25 0 M131.25 0 C145.44 0.3, 152.87 6.38, 151 19.75 M131.25 0 C143.72 0.15, 151.44 4.34, 151 19.75 M151 19.75 C151.56 28.96, 151.89 40.8, 151 59.25 M151 19.75 C150.59 30.99, 151.66 42.29, 151 59.25 M151 59.25 C150.61 70.44, 145.79 80.8, 131.25 79 M151 59.25 C148.84 72.52, 145.61 79.3, 131.25 79 M131.25 79 C98.45 80.5, 64.87 76.98, 19.75 79 M131.25 79 C100.2 78.4, 69.66 79.03, 19.75 79 M19.75 79 C7.13 78.08, 1.91 74.26, 0 59.25 M19.75 79 C8.03 77.18, -1.12 71.21, 0 59.25 M0 59.25 C-1.14 50.82, 0.63 41.27, 0 19.75 M0 59.25 C-0.29 46.82, -0.48 35.52, 0 19.75 M0 19.75 C-0.97 7.78, 7.89 -0.23, 19.75 0 M0 19.75 C0.28 7.88, 6.95 0.49, 19.75 0" stroke="#000000" stroke-width="1" fill="none"></path></g><g transform="translate(275.0092945094766 210.01162439472307) rotate(0 45.20996093750003 12.5)"><text x="45.2099609375" y="0" font-family="Virgil, Segoe UI Emoji" font-size="20px" fill="#000000" text-anchor="middle" style="white-space: pre;" direction="ltr" dominant-baseline="text-before-edge">System A</text></g><g stroke-linecap="round" transform="translate(380.3943706710073 241.01013610307587) rotate(0 13.039993286132812 19.113036677485923)"><path d="M0 0 C0 0, 0 0, 0 0 M0 0 C0 0, 0 0, 0 0 M0.13 12.04 C3.49 8.17, 6.86 4.31, 10.63 -0.03 M0.13 12.04 C2.66 9.13, 5.19 6.22, 10.63 -0.03 M0.27 24.08 C8.07 15.11, 15.87 6.13, 21.26 -0.07 M0.27 24.08 C7.16 16.15, 14.06 8.22, 21.26 -0.07 M-0.26 36.88 C7.79 27.62, 15.83 18.37, 29.27 2.92 M-0.26 36.88 C11.06 23.86, 22.37 10.85, 29.27 2.92 M5.12 42.88 C13.65 33.07, 22.18 23.26, 29.4 14.96 M5.12 42.88 C14.18 32.46, 23.24 22.05, 29.4 14.96 M15.76 42.85 C21.22 36.56, 26.69 30.27, 29.53 27 M15.76 42.85 C18.69 39.47, 21.63 36.09, 29.53 27 M-0.06 38.17 C-0.06 38.17, -0.06 38.17, -0.06 38.17 M-0.06 38.17 C-0.06 38.17, -0.06 38.17, -0.06 38.17 M11.98 38.04 C8.38 34.91, 4.79 31.79, -0.09 27.54 M11.98 38.04 C8.49 35.01, 5 31.98, -0.09 27.54 M24.02 37.91 C15.19 30.23, 6.35 22.55, -0.13 16.91 M24.02 37.91 C18.96 33.51, 13.91 29.11, -0.13 16.91 M30.78 33.18 C23.27 26.65, 15.76 20.12, -0.16 6.28 M30.78 33.18 C23.61 26.95, 16.44 20.71, -0.16 6.28 M30.75 22.55 C24.77 17.36, 18.8 12.17, 2.07 -2.38 M30.75 22.55 C20.15 13.34, 9.55 4.13, 2.07 -2.38 M30.71 11.92 C26.42 8.2, 22.14 4.47, 14.11 -2.51 M30.71 11.92 C26.93 8.64, 23.16 5.36, 14.11 -2.51" stroke="#ced4da" stroke-width="1" fill="none"></path><path d="M0 0 C5.93 0, 11.86 0, 26.08 0 M0 0 C9.78 0, 19.56 0, 26.08 0 M26.08 0 C26.08 8.19, 26.08 16.39, 26.08 38.23 M26.08 0 C26.08 11.89, 26.08 23.79, 26.08 38.23 M26.08 38.23 C17.46 38.23, 8.83 38.23, 0 38.23 M26.08 38.23 C20.31 38.23, 14.54 38.23, 0 38.23 M0 38.23 C0 26.94, 0 15.65, 0 0 M0 38.23 C0 23.18, 0 8.14, 0 0" stroke="#000000" stroke-width="2" fill="none"></path></g><g stroke-linecap="round"><g transform="translate(382.8585494618891 245.2389143297737) rotate(0 7.8499972068245825 5.684341886080802e-14)"><path d="M0 0 C2.62 0, 13.08 0, 15.7 0 M0 0 C2.62 0, 13.08 0, 15.7 0" stroke="#000000" stroke-width="2" fill="none"></path></g></g><mask></mask><g stroke-linecap="round"><g transform="translate(382.78350025569284 248.7576791693042) rotate(0 7.8499972068245825 5.684341886080802e-14)"><path d="M0 0 C2.62 0, 13.08 0, 15.7 0 M0 0 C2.62 0, 13.08 0, 15.7 0" stroke="#000000" stroke-width="2" fill="none"></path></g></g><mask></mask><g stroke-linecap="round"><g transform="translate(382.76652935339496 252.27644400883526) rotate(0 7.8499972068245825 5.684341886080802e-14)"><path d="M0 0 C2.62 0, 13.08 0, 15.7 0 M0 0 C2.62 0, 13.08 0, 15.7 0" stroke="#000000" stroke-width="2" fill="none"></path></g></g><mask></mask><g stroke-linecap="round"><g transform="translate(382.76652935339496 255.79520884836597) rotate(0 7.8499972068245825 5.684341886080802e-14)"><path d="M0 0 C2.62 0, 13.08 0, 15.7 0 M0 0 C2.62 0, 13.08 0, 15.7 0" stroke="#000000" stroke-width="2" fill="none"></path></g></g><mask></mask><g transform="translate(23.29961547965692 431.54486571485995) rotate(0 27.769973754882812 12.5)"><text x="0" y="0" font-family="Virgil, Segoe UI Emoji" font-size="20px" fill="#000000" text-anchor="start" style="white-space: pre;" direction="ltr" dominant-baseline="text-before-edge">Users</text></g><g stroke-linecap="round" transform="translate(63.74243241887629 364.28502238052306) rotate(0 9.875171816384778 8.640775339336756)"><path d="M2.19 3.23 C2.19 3.23, 2.19 3.23, 2.19 3.23 M2.19 3.23 C2.19 3.23, 2.19 3.23, 2.19 3.23 M2.98 14.51 C5.22 11.93, 7.46 9.36, 14.13 1.68 M2.98 14.51 C5.23 11.92, 7.48 9.33, 14.13 1.68 M10.33 18.25 C13.13 15.03, 15.94 11.8, 19.51 7.69 M10.33 18.25 C12.93 15.26, 15.53 12.27, 19.51 7.69 M3.77 15.47 C3.77 15.47, 3.77 15.47, 3.77 15.47 M3.77 15.47 C3.77 15.47, 3.77 15.47, 3.77 15.47 M15.81 15.34 C11.92 11.95, 8.02 8.56, 2.23 3.53 M15.81 15.34 C11.42 11.52, 7.02 7.7, 2.23 3.53 M20.31 8.65 C17.59 6.29, 14.87 3.92, 9.74 -0.54 M20.31 8.65 C17.48 6.19, 14.65 3.73, 9.74 -0.54" stroke="#ced4da" stroke-width="1" fill="none"></path><path d="M19.75 8.64 C19.75 9.14, 19.7 9.65, 19.6 10.14 C19.5 10.63, 19.35 11.13, 19.15 11.6 C18.96 12.07, 18.71 12.53, 18.43 12.96 C18.14 13.39, 17.81 13.81, 17.44 14.19 C17.07 14.58, 16.66 14.94, 16.22 15.26 C15.78 15.58, 15.31 15.87, 14.81 16.12 C14.32 16.37, 13.79 16.59, 13.25 16.76 C12.72 16.93, 12.15 17.06, 11.59 17.15 C11.03 17.24, 10.45 17.28, 9.88 17.28 C9.3 17.28, 8.72 17.24, 8.16 17.15 C7.6 17.06, 7.03 16.93, 6.5 16.76 C5.96 16.59, 5.43 16.37, 4.94 16.12 C4.44 15.87, 3.97 15.58, 3.53 15.26 C3.09 14.94, 2.68 14.58, 2.31 14.19 C1.94 13.81, 1.61 13.39, 1.32 12.96 C1.04 12.53, 0.79 12.07, 0.6 11.6 C0.4 11.13, 0.25 10.63, 0.15 10.14 C0.05 9.65, 0 9.14, 0 8.64 C0 8.14, 0.05 7.63, 0.15 7.14 C0.25 6.65, 0.4 6.16, 0.6 5.69 C0.79 5.22, 1.04 4.75, 1.32 4.32 C1.61 3.89, 1.94 3.47, 2.31 3.09 C2.68 2.7, 3.09 2.34, 3.53 2.02 C3.97 1.7, 4.44 1.41, 4.94 1.16 C5.43 0.91, 5.96 0.69, 6.5 0.52 C7.03 0.35, 7.6 0.22, 8.16 0.13 C8.72 0.04, 9.3 0, 9.88 0 C10.45 0, 11.03 0.04, 11.59 0.13 C12.15 0.22, 12.72 0.35, 13.25 0.52 C13.79 0.69, 14.32 0.91, 14.81 1.16 C15.31 1.41, 15.78 1.7, 16.22 2.02 C16.66 2.34, 17.07 2.7, 17.44 3.09 C17.81 3.47, 18.14 3.89, 18.43 4.32 C18.71 4.75, 18.96 5.22, 19.15 5.69 C19.35 6.16, 19.5 6.65, 19.6 7.14 C19.7 7.63, 19.73 8.39, 19.75 8.64 C19.78 8.89, 19.78 8.39, 19.75 8.64" stroke="#000000" stroke-width="2" fill="none"></path></g><g stroke-linecap="round" transform="translate(20.558758294554252 364.8680901641569) rotate(0 9.875171816384793 8.640775339336756)"><path d="M2.19 3.23 C2.19 3.23, 2.19 3.23, 2.19 3.23 M2.19 3.23 C2.19 3.23, 2.19 3.23, 2.19 3.23 M2.98 14.51 C7.02 9.86, 11.06 5.22, 14.13 1.68 M2.98 14.51 C6.94 9.96, 10.9 5.4, 14.13 1.68 M10.33 18.25 C13.48 14.63, 16.63 11.01, 19.51 7.69 M10.33 18.25 C13.85 14.2, 17.37 10.16, 19.51 7.69 M3.77 15.47 C3.77 15.47, 3.77 15.47, 3.77 15.47 M3.77 15.47 C3.77 15.47, 3.77 15.47, 3.77 15.47 M15.81 15.34 C12.45 12.41, 9.08 9.49, 2.23 3.53 M15.81 15.34 C10.82 11, 5.83 6.66, 2.23 3.53 M20.31 8.65 C18.09 6.72, 15.88 4.79, 9.74 -0.54 M20.31 8.65 C17.54 6.24, 14.78 3.84, 9.74 -0.54" stroke="#ced4da" stroke-width="1" fill="none"></path><path d="M19.75 8.64 C19.75 9.14, 19.7 9.65, 19.6 10.14 C19.5 10.63, 19.35 11.13, 19.15 11.6 C18.96 12.07, 18.71 12.53, 18.43 12.96 C18.14 13.39, 17.81 13.81, 17.44 14.19 C17.07 14.58, 16.66 14.94, 16.22 15.26 C15.78 15.58, 15.31 15.87, 14.81 16.12 C14.32 16.37, 13.79 16.59, 13.25 16.76 C12.72 16.93, 12.15 17.06, 11.59 17.15 C11.03 17.24, 10.45 17.28, 9.88 17.28 C9.3 17.28, 8.72 17.24, 8.16 17.15 C7.6 17.06, 7.03 16.93, 6.5 16.76 C5.96 16.59, 5.43 16.37, 4.94 16.12 C4.44 15.87, 3.97 15.58, 3.53 15.26 C3.09 14.94, 2.68 14.58, 2.31 14.19 C1.94 13.81, 1.61 13.39, 1.32 12.96 C1.04 12.53, 0.79 12.07, 0.6 11.6 C0.4 11.13, 0.25 10.63, 0.15 10.14 C0.05 9.65, 0 9.14, 0 8.64 C0 8.14, 0.05 7.63, 0.15 7.14 C0.25 6.65, 0.4 6.16, 0.6 5.69 C0.79 5.22, 1.04 4.75, 1.32 4.32 C1.61 3.89, 1.94 3.47, 2.31 3.09 C2.68 2.7, 3.09 2.34, 3.53 2.02 C3.97 1.7, 4.44 1.41, 4.94 1.16 C5.43 0.91, 5.96 0.69, 6.5 0.52 C7.03 0.35, 7.6 0.22, 8.16 0.13 C8.72 0.04, 9.3 0, 9.88 0 C10.45 0, 11.03 0.04, 11.59 0.13 C12.15 0.22, 12.72 0.35, 13.25 0.52 C13.79 0.69, 14.32 0.91, 14.81 1.16 C15.31 1.41, 15.78 1.7, 16.22 2.02 C16.66 2.34, 17.07 2.7, 17.44 3.09 C17.81 3.47, 18.14 3.89, 18.43 4.32 C18.71 4.75, 18.96 5.22, 19.15 5.69 C19.35 6.16, 19.5 6.65, 19.6 7.14 C19.7 7.63, 19.73 8.39, 19.75 8.64 C19.78 8.89, 19.78 8.39, 19.75 8.64" stroke="#000000" stroke-width="2" fill="none"></path></g><g stroke-linecap="round"><g transform="translate(31.010578301818754 423.79912590180675) rotate(0 21.90843989373377 -18.49404842519118)" fill-rule="evenodd"><path d="M11.93 -33.36 C11.93 -33.36, 11.93 -33.36, 11.93 -33.36 M11.93 -33.36 C11.93 -33.36, 11.93 -33.36, 11.93 -33.36 M6.81 -15.28 C11.02 -20.13, 15.24 -24.97, 25.18 -36.41 M6.81 -15.28 C11.2 -20.33, 15.59 -25.38, 25.18 -36.41 M2.35 2.04 C10.08 -6.84, 17.8 -15.73, 31.87 -31.92 M2.35 2.04 C8.57 -5.11, 14.79 -12.26, 31.87 -31.92 M12.98 2.01 C22.11 -8.49, 31.23 -18.99, 37.25 -25.92 M12.98 2.01 C18.1 -3.88, 23.21 -9.76, 37.25 -25.92 M23.61 1.97 C28.81 -4.01, 34.02 -10, 41.32 -18.4 M23.61 1.97 C29.2 -4.45, 34.79 -10.88, 41.32 -18.4 M34.9 1.19 C37.9 -2.27, 40.9 -5.72, 46.05 -11.64 M34.9 1.19 C38.54 -3, 42.18 -7.19, 46.05 -11.64 M0 0 C0 0, 0 0, 0 0 M0 0 C0 0, 0 0, 0 0 M12.04 -0.13 C8.63 -3.1, 5.22 -6.06, 1.47 -9.32 M12.04 -0.13 C8.37 -3.32, 4.7 -6.51, 1.47 -9.32 M24.08 -0.27 C19.8 -3.99, 15.51 -7.72, 2.95 -18.64 M24.08 -0.27 C19.73 -4.05, 15.38 -7.83, 2.95 -18.64 M34.61 -1.71 C24.23 -10.74, 13.85 -19.76, 5.93 -26.64 M34.61 -1.71 C24.6 -10.42, 14.58 -19.12, 5.93 -26.64 M43.64 -4.47 C37 -10.24, 30.37 -16, 11.18 -32.68 M43.64 -4.47 C34.95 -12.02, 26.26 -19.57, 11.18 -32.68 M42.85 -15.76 C34.57 -22.95, 26.3 -30.14, 17.19 -38.06 M42.85 -15.76 C37.16 -20.7, 31.48 -25.64, 17.19 -38.06" stroke="#ced4da" stroke-width="1" fill="none"></path><path d="M0 0 C0.78 -4.11, 1.34 -18.46, 4.68 -24.67 C8.03 -30.87, 14.94 -36.78, 20.07 -37.23 C25.2 -37.68, 31.83 -33.14, 35.45 -27.36 C39.07 -21.58, 47.71 -7.12, 41.81 -2.56 C35.9 2, 6.97 -0.43, 0 0 M0 0 C0.78 -4.11, 1.34 -18.46, 4.68 -24.67 C8.03 -30.87, 14.94 -36.78, 20.07 -37.23 C25.2 -37.68, 31.83 -33.14, 35.45 -27.36 C39.07 -21.58, 47.71 -7.12, 41.81 -2.56 C35.9 2, 6.97 -0.43, 0 0" stroke="#000000" stroke-width="2" fill="none"></path></g></g><mask></mask><g stroke-linecap="round" transform="translate(41.49670045262869 367.2246145819695) rotate(0 10.702336545928873 9.364544477687787)"><path d="M2.43 3.43 C2.43 3.43, 2.43 3.43, 2.43 3.43 M2.43 3.43 C2.43 3.43, 2.43 3.43, 2.43 3.43 M2.56 15.48 C6.46 10.98, 10.37 6.49, 15.02 1.14 M2.56 15.48 C6.8 10.59, 11.05 5.71, 15.02 1.14 M9.91 19.21 C13.11 15.54, 16.3 11.86, 21.06 6.38 M9.91 19.21 C14.32 14.14, 18.74 9.06, 21.06 6.38 M4.02 16.71 C4.02 16.71, 4.02 16.71, 4.02 16.71 M4.02 16.71 C4.02 16.71, 4.02 16.71, 4.02 16.71 M16.82 17.23 C12.78 13.72, 8.74 10.21, 1.72 4.11 M16.82 17.23 C12.74 13.69, 8.66 10.14, 1.72 4.11 M21.31 10.54 C17.59 7.3, 13.86 4.07, 9.24 0.04 M21.31 10.54 C17.39 7.13, 13.46 3.72, 9.24 0.04" stroke="#ced4da" stroke-width="1" fill="none"></path><path d="M21.4 9.36 C21.4 9.91, 21.35 10.46, 21.24 10.99 C21.13 11.52, 20.97 12.06, 20.76 12.57 C20.55 13.08, 20.28 13.58, 19.97 14.05 C19.66 14.52, 19.3 14.97, 18.9 15.38 C18.5 15.8, 18.06 16.19, 17.58 16.54 C17.11 16.89, 16.59 17.2, 16.05 17.47 C15.52 17.75, 14.94 17.98, 14.36 18.16 C13.78 18.35, 13.17 18.49, 12.56 18.59 C11.95 18.68, 11.32 18.73, 10.7 18.73 C10.08 18.73, 9.45 18.68, 8.84 18.59 C8.23 18.49, 7.62 18.35, 7.04 18.16 C6.46 17.98, 5.89 17.75, 5.35 17.47 C4.81 17.2, 4.3 16.89, 3.82 16.54 C3.35 16.19, 2.9 15.8, 2.5 15.38 C2.11 14.97, 1.74 14.52, 1.43 14.05 C1.12 13.58, 0.86 13.08, 0.65 12.57 C0.43 12.06, 0.27 11.52, 0.16 10.99 C0.06 10.46, 0 9.91, 0 9.36 C0 8.82, 0.06 8.27, 0.16 7.74 C0.27 7.2, 0.43 6.67, 0.65 6.16 C0.86 5.65, 1.12 5.15, 1.43 4.68 C1.74 4.21, 2.11 3.76, 2.5 3.35 C2.9 2.93, 3.35 2.54, 3.82 2.19 C4.3 1.84, 4.81 1.53, 5.35 1.25 C5.89 0.98, 6.46 0.75, 7.04 0.56 C7.62 0.38, 8.23 0.24, 8.84 0.14 C9.45 0.05, 10.08 0, 10.7 0 C11.32 0, 11.95 0.05, 12.56 0.14 C13.17 0.24, 13.78 0.38, 14.36 0.56 C14.94 0.75, 15.52 0.98, 16.05 1.25 C16.59 1.53, 17.11 1.84, 17.58 2.19 C18.06 2.54, 18.5 2.93, 18.9 3.35 C19.3 3.76, 19.66 4.21, 19.97 4.68 C20.28 5.15, 20.55 5.65, 20.76 6.16 C20.97 6.67, 21.13 7.2, 21.24 7.74 C21.35 8.27, 21.38 9.09, 21.4 9.36 C21.43 9.64, 21.43 9.09, 21.4 9.36" stroke="#000000" stroke-width="2" fill="none"></path></g><g stroke-linecap="round"><g transform="translate(60.1619137562696 390.1300612167538) rotate(0 16.718658601522193 9.921154001040122)" fill-rule="evenodd"><path d="M0 0 C0 0, 0 0, 0 0 M0 0 C0 0, 0 0, 0 0 M6.04 5.25 C8.42 2.51, 10.81 -0.24, 17.85 -8.34 M6.04 5.25 C10.58 0.03, 15.12 -5.2, 17.85 -8.34 M12.08 10.5 C16.07 5.9, 20.07 1.3, 25.2 -4.6 M12.08 10.5 C16.89 4.95, 21.71 -0.59, 25.2 -4.6 M15.49 18.76 C19.01 14.72, 22.53 10.67, 31.23 0.65 M15.49 18.76 C19.48 14.18, 23.47 9.59, 31.23 0.65 M16.93 29.3 C23.19 22.1, 29.44 14.91, 33.34 10.43 M16.93 29.3 C22.18 23.26, 27.43 17.22, 33.34 10.43 M29.53 27 C31.43 24.82, 33.32 22.64, 34.78 20.96 M29.53 27 C30.85 25.48, 32.17 23.96, 34.78 20.96 M14.43 27.6 C14.43 27.6, 14.43 27.6, 14.43 27.6 M14.43 27.6 C14.43 27.6, 14.43 27.6, 14.43 27.6 M25.72 26.82 C22.43 23.96, 19.15 21.11, 16.66 18.94 M25.72 26.82 C22.68 24.17, 19.64 21.53, 16.66 18.94 M33.98 23.4 C25.73 16.23, 17.48 9.05, 3.04 -3.5 M33.98 23.4 C23.89 14.62, 13.79 5.85, 3.04 -3.5 M36.97 15.4 C30.45 9.73, 23.94 4.07, 9.8 -8.22 M36.97 15.4 C29.49 8.89, 22 2.39, 9.8 -8.22" stroke="#ced4da" stroke-width="1" fill="none"></path><path d="M0 0 C0.86 -0.93, 3.58 -4.18, 5.17 -5.57 C6.77 -6.97, 7.56 -7.83, 9.55 -8.36 C11.54 -8.89, 14.99 -8.89, 17.12 -8.76 C19.24 -8.62, 20.83 -8.43, 22.29 -7.56 C23.75 -6.7, 24.88 -5.11, 25.87 -3.58 C26.87 -2.06, 27.47 -0.33, 28.26 1.59 C29.06 3.52, 29.92 5.84, 30.65 7.96 C31.38 10.08, 32.18 12.41, 32.64 14.33 C33.11 16.25, 33.44 17.78, 33.44 19.51 C33.44 21.23, 33.3 23.42, 32.64 24.68 C31.98 25.94, 30.72 26.47, 29.46 27.07 C28.2 27.67, 26.87 28, 25.08 28.26 C23.29 28.53, 20.43 28.73, 18.71 28.66 C16.98 28.59, 15.46 28.93, 14.73 27.86 C14 26.8, 14.66 23.82, 14.33 22.29 C14 20.77, 13.47 20.23, 12.74 18.71 C12.01 17.18, 11.08 15.33, 9.95 13.14 C8.82 10.95, 7.63 7.76, 5.97 5.57 C4.31 3.38, 1 0.93, 0 0 M0 0 C0.86 -0.93, 3.58 -4.18, 5.17 -5.57 C6.77 -6.97, 7.56 -7.83, 9.55 -8.36 C11.54 -8.89, 14.99 -8.89, 17.12 -8.76 C19.24 -8.62, 20.83 -8.43, 22.29 -7.56 C23.75 -6.7, 24.88 -5.11, 25.87 -3.58 C26.87 -2.06, 27.47 -0.33, 28.26 1.59 C29.06 3.52, 29.92 5.84, 30.65 7.96 C31.38 10.08, 32.18 12.41, 32.64 14.33 C33.11 16.25, 33.44 17.78, 33.44 19.51 C33.44 21.23, 33.3 23.42, 32.64 24.68 C31.98 25.94, 30.72 26.47, 29.46 27.07 C28.2 27.67, 26.87 28, 25.08 28.26 C23.29 28.53, 20.43 28.73, 18.71 28.66 C16.98 28.59, 15.46 28.93, 14.73 27.86 C14 26.8, 14.66 23.82, 14.33 22.29 C14 20.77, 13.47 20.23, 12.74 18.71 C12.01 17.18, 11.08 15.33, 9.95 13.14 C8.82 10.95, 7.63 7.76, 5.97 5.57 C4.31 3.38, 1 0.93, 0 0" stroke="#000000" stroke-width="2" fill="none"></path></g></g><mask></mask><g stroke-linecap="round"><g transform="translate(42.243127302935676 390.1181853133494) rotate(0 -16.121563651467838 12.19394740044197)" fill-rule="evenodd"><path d="M-24.42 -2.68 C-24.42 -2.68, -24.42 -2.68, -24.42 -2.68 M-24.42 -2.68 C-24.42 -2.68, -24.42 -2.68, -24.42 -2.68 M-26.26 11.62 C-20.78 5.32, -15.31 -0.98, -12.48 -4.23 M-26.26 11.62 C-20.82 5.37, -15.38 -0.89, -12.48 -4.23 M-29.41 27.44 C-19.94 16.55, -10.47 5.66, -2.51 -3.51 M-29.41 27.44 C-19.61 16.16, -9.81 4.89, -2.51 -3.51 M-22.71 31.93 C-17.28 25.69, -11.85 19.44, -8.28 15.33 M-22.71 31.93 C-19.41 28.13, -16.11 24.34, -8.28 15.33 M-12.74 32.65 C-12.05 31.86, -11.36 31.06, -10.77 30.39 M-12.74 32.65 C-11.96 31.76, -11.18 30.86, -10.77 30.39 M-31.63 25.72 C-31.63 25.72, -31.63 25.72, -31.63 25.72 M-31.63 25.72 C-31.63 25.72, -31.63 25.72, -31.63 25.72 M-13.55 30.83 C-17.35 27.53, -21.14 24.23, -29.4 17.05 M-13.55 30.83 C-18.94 26.14, -24.33 21.46, -29.4 17.05 M-6.79 26.11 C-14.32 19.57, -21.84 13.03, -27.92 7.74 M-6.79 26.11 C-12.74 20.93, -18.69 15.76, -27.92 7.74 M-8.34 14.16 C-12.45 10.59, -16.56 7.01, -24.94 -0.27 M-8.34 14.16 C-13.85 9.37, -19.36 4.58, -24.94 -0.27 M-4.6 6.81 C-9.24 2.78, -13.88 -1.25, -20.45 -6.96 M-4.6 6.81 C-9.2 2.81, -13.81 -1.19, -20.45 -6.96 M-0.1 0.12 C-3.53 -2.86, -6.95 -5.83, -12.93 -11.03 M-0.1 0.12 C-4.81 -3.97, -9.52 -8.06, -12.93 -11.03" stroke="#ced4da" stroke-width="1" fill="none"></path><path d="M0 0 C-0.66 -0.73, -2.59 -3.18, -3.98 -4.38 C-5.37 -5.57, -6.37 -6.63, -8.36 -7.17 C-10.35 -7.7, -13.8 -7.7, -15.92 -7.56 C-18.05 -7.43, -19.64 -7.23, -21.1 -6.37 C-22.56 -5.51, -23.68 -3.91, -24.68 -2.39 C-25.68 -0.86, -26.27 0.86, -27.07 2.79 C-27.86 4.71, -28.73 7.03, -29.46 9.16 C-30.19 11.28, -30.98 13.6, -31.45 15.52 C-31.91 17.45, -32.24 18.97, -32.24 20.7 C-32.24 22.42, -32.11 24.61, -31.45 25.87 C-30.78 27.13, -29.46 27.53, -28.26 28.26 C-27.07 28.99, -26.01 29.72, -24.28 30.25 C-22.56 30.78, -20.1 31.25, -17.91 31.45 C-15.72 31.65, -12.41 32.64, -11.15 31.45 C-9.89 30.25, -10.62 26.07, -10.35 24.28 C-10.08 22.49, -9.89 22.29, -9.55 20.7 C-9.22 19.11, -9.16 17.05, -8.36 14.73 C-7.56 12.41, -6.17 9.22, -4.78 6.77 C-3.38 4.31, -0.8 1.13, 0 0 M0 0 C-0.66 -0.73, -2.59 -3.18, -3.98 -4.38 C-5.37 -5.57, -6.37 -6.63, -8.36 -7.17 C-10.35 -7.7, -13.8 -7.7, -15.92 -7.56 C-18.05 -7.43, -19.64 -7.23, -21.1 -6.37 C-22.56 -5.51, -23.68 -3.91, -24.68 -2.39 C-25.68 -0.86, -26.27 0.86, -27.07 2.79 C-27.86 4.71, -28.73 7.03, -29.46 9.16 C-30.19 11.28, -30.98 13.6, -31.45 15.52 C-31.91 17.45, -32.24 18.97, -32.24 20.7 C-32.24 22.42, -32.11 24.61, -31.45 25.87 C-30.78 27.13, -29.46 27.53, -28.26 28.26 C-27.07 28.99, -26.01 29.72, -24.28 30.25 C-22.56 30.78, -20.1 31.25, -17.91 31.45 C-15.72 31.65, -12.41 32.64, -11.15 31.45 C-9.89 30.25, -10.62 26.07, -10.35 24.28 C-10.08 22.49, -9.89 22.29, -9.55 20.7 C-9.22 19.11, -9.16 17.05, -8.36 14.73 C-7.56 12.41, -6.17 9.22, -4.78 6.77 C-3.38 4.31, -0.8 1.13, 0 0" stroke="#000000" stroke-width="2" fill="none"></path></g></g><mask></mask><g transform="translate(592.5683620282512 77.25984333433678) rotate(0 27.769973754882812 12.5)"><text x="0" y="0" font-family="Virgil, Segoe UI Emoji" font-size="20px" fill="#000000" text-anchor="start" style="white-space: pre;" direction="ltr" dominant-baseline="text-before-edge">Users</text></g><g stroke-linecap="round" transform="translate(633.0111789674704 9.999999999999886) rotate(0 9.875171816384807 8.640775339336699)"><path d="M2.19 3.23 C2.19 3.23, 2.19 3.23, 2.19 3.23 M2.19 3.23 C2.19 3.23, 2.19 3.23, 2.19 3.23 M2.98 14.51 C5.22 11.93, 7.46 9.36, 14.13 1.68 M2.98 14.51 C5.23 11.92, 7.48 9.33, 14.13 1.68 M10.33 18.25 C13.13 15.03, 15.94 11.8, 19.51 7.69 M10.33 18.25 C12.93 15.26, 15.53 12.27, 19.51 7.69 M3.77 15.47 C3.77 15.47, 3.77 15.47, 3.77 15.47 M3.77 15.47 C3.77 15.47, 3.77 15.47, 3.77 15.47 M15.81 15.34 C11.92 11.95, 8.02 8.56, 2.23 3.53 M15.81 15.34 C11.42 11.52, 7.02 7.7, 2.23 3.53 M20.31 8.65 C17.59 6.29, 14.87 3.92, 9.74 -0.54 M20.31 8.65 C17.48 6.19, 14.65 3.73, 9.74 -0.54" stroke="#ced4da" stroke-width="1" fill="none"></path><path d="M19.75 8.64 C19.75 9.14, 19.7 9.65, 19.6 10.14 C19.5 10.63, 19.35 11.13, 19.15 11.6 C18.96 12.07, 18.71 12.53, 18.43 12.96 C18.14 13.39, 17.81 13.81, 17.44 14.19 C17.07 14.58, 16.66 14.94, 16.22 15.26 C15.78 15.58, 15.31 15.87, 14.81 16.12 C14.32 16.37, 13.79 16.59, 13.25 16.76 C12.72 16.93, 12.15 17.06, 11.59 17.15 C11.03 17.24, 10.45 17.28, 9.88 17.28 C9.3 17.28, 8.72 17.24, 8.16 17.15 C7.6 17.06, 7.03 16.93, 6.5 16.76 C5.96 16.59, 5.43 16.37, 4.94 16.12 C4.44 15.87, 3.97 15.58, 3.53 15.26 C3.09 14.94, 2.68 14.58, 2.31 14.19 C1.94 13.81, 1.61 13.39, 1.32 12.96 C1.04 12.53, 0.79 12.07, 0.6 11.6 C0.4 11.13, 0.25 10.63, 0.15 10.14 C0.05 9.65, 0 9.14, 0 8.64 C0 8.14, 0.05 7.63, 0.15 7.14 C0.25 6.65, 0.4 6.16, 0.6 5.69 C0.79 5.22, 1.04 4.75, 1.32 4.32 C1.61 3.89, 1.94 3.47, 2.31 3.09 C2.68 2.7, 3.09 2.34, 3.53 2.02 C3.97 1.7, 4.44 1.41, 4.94 1.16 C5.43 0.91, 5.96 0.69, 6.5 0.52 C7.03 0.35, 7.6 0.22, 8.16 0.13 C8.72 0.04, 9.3 0, 9.88 0 C10.45 0, 11.03 0.04, 11.59 0.13 C12.15 0.22, 12.72 0.35, 13.25 0.52 C13.79 0.69, 14.32 0.91, 14.81 1.16 C15.31 1.41, 15.78 1.7, 16.22 2.02 C16.66 2.34, 17.07 2.7, 17.44 3.09 C17.81 3.47, 18.14 3.89, 18.43 4.32 C18.71 4.75, 18.96 5.22, 19.15 5.69 C19.35 6.16, 19.5 6.65, 19.6 7.14 C19.7 7.63, 19.73 8.39, 19.75 8.64 C19.78 8.89, 19.78 8.39, 19.75 8.64" stroke="#000000" stroke-width="2" fill="none"></path></g><g stroke-linecap="round" transform="translate(589.8275048431483 10.583067783633737) rotate(0 9.875171816384807 8.640775339336699)"><path d="M2.19 3.23 C2.19 3.23, 2.19 3.23, 2.19 3.23 M2.19 3.23 C2.19 3.23, 2.19 3.23, 2.19 3.23 M2.98 14.51 C7.02 9.86, 11.06 5.22, 14.13 1.68 M2.98 14.51 C6.94 9.96, 10.9 5.4, 14.13 1.68 M10.33 18.25 C13.48 14.63, 16.63 11.01, 19.51 7.69 M10.33 18.25 C13.85 14.2, 17.37 10.16, 19.51 7.69 M3.77 15.47 C3.77 15.47, 3.77 15.47, 3.77 15.47 M3.77 15.47 C3.77 15.47, 3.77 15.47, 3.77 15.47 M15.81 15.34 C12.45 12.41, 9.08 9.49, 2.23 3.53 M15.81 15.34 C10.82 11, 5.83 6.66, 2.23 3.53 M20.31 8.65 C18.09 6.72, 15.88 4.79, 9.74 -0.54 M20.31 8.65 C17.54 6.24, 14.78 3.84, 9.74 -0.54" stroke="#ced4da" stroke-width="1" fill="none"></path><path d="M19.75 8.64 C19.75 9.14, 19.7 9.65, 19.6 10.14 C19.5 10.63, 19.35 11.13, 19.15 11.6 C18.96 12.07, 18.71 12.53, 18.43 12.96 C18.14 13.39, 17.81 13.81, 17.44 14.19 C17.07 14.58, 16.66 14.94, 16.22 15.26 C15.78 15.58, 15.31 15.87, 14.81 16.12 C14.32 16.37, 13.79 16.59, 13.25 16.76 C12.72 16.93, 12.15 17.06, 11.59 17.15 C11.03 17.24, 10.45 17.28, 9.88 17.28 C9.3 17.28, 8.72 17.24, 8.16 17.15 C7.6 17.06, 7.03 16.93, 6.5 16.76 C5.96 16.59, 5.43 16.37, 4.94 16.12 C4.44 15.87, 3.97 15.58, 3.53 15.26 C3.09 14.94, 2.68 14.58, 2.31 14.19 C1.94 13.81, 1.61 13.39, 1.32 12.96 C1.04 12.53, 0.79 12.07, 0.6 11.6 C0.4 11.13, 0.25 10.63, 0.15 10.14 C0.05 9.65, 0 9.14, 0 8.64 C0 8.14, 0.05 7.63, 0.15 7.14 C0.25 6.65, 0.4 6.16, 0.6 5.69 C0.79 5.22, 1.04 4.75, 1.32 4.32 C1.61 3.89, 1.94 3.47, 2.31 3.09 C2.68 2.7, 3.09 2.34, 3.53 2.02 C3.97 1.7, 4.44 1.41, 4.94 1.16 C5.43 0.91, 5.96 0.69, 6.5 0.52 C7.03 0.35, 7.6 0.22, 8.16 0.13 C8.72 0.04, 9.3 0, 9.88 0 C10.45 0, 11.03 0.04, 11.59 0.13 C12.15 0.22, 12.72 0.35, 13.25 0.52 C13.79 0.69, 14.32 0.91, 14.81 1.16 C15.31 1.41, 15.78 1.7, 16.22 2.02 C16.66 2.34, 17.07 2.7, 17.44 3.09 C17.81 3.47, 18.14 3.89, 18.43 4.32 C18.71 4.75, 18.96 5.22, 19.15 5.69 C19.35 6.16, 19.5 6.65, 19.6 7.14 C19.7 7.63, 19.73 8.39, 19.75 8.64 C19.78 8.89, 19.78 8.39, 19.75 8.64" stroke="#000000" stroke-width="2" fill="none"></path></g><g stroke-linecap="round"><g transform="translate(600.2793248504129 69.51410352128357) rotate(0 21.90843989373377 -18.49404842519118)" fill-rule="evenodd"><path d="M11.93 -33.36 C11.93 -33.36, 11.93 -33.36, 11.93 -33.36 M11.93 -33.36 C11.93 -33.36, 11.93 -33.36, 11.93 -33.36 M6.81 -15.28 C11.02 -20.13, 15.24 -24.97, 25.18 -36.41 M6.81 -15.28 C11.2 -20.33, 15.59 -25.38, 25.18 -36.41 M2.35 2.04 C10.08 -6.84, 17.8 -15.73, 31.87 -31.92 M2.35 2.04 C8.57 -5.11, 14.79 -12.26, 31.87 -31.92 M12.98 2.01 C22.11 -8.49, 31.23 -18.99, 37.25 -25.92 M12.98 2.01 C18.1 -3.88, 23.21 -9.76, 37.25 -25.92 M23.61 1.97 C28.81 -4.01, 34.02 -10, 41.32 -18.4 M23.61 1.97 C29.2 -4.45, 34.79 -10.88, 41.32 -18.4 M34.9 1.19 C37.9 -2.27, 40.9 -5.72, 46.05 -11.64 M34.9 1.19 C38.54 -3, 42.18 -7.19, 46.05 -11.64 M0 0 C0 0, 0 0, 0 0 M0 0 C0 0, 0 0, 0 0 M12.04 -0.13 C8.63 -3.1, 5.22 -6.06, 1.47 -9.32 M12.04 -0.13 C8.37 -3.32, 4.7 -6.51, 1.47 -9.32 M24.08 -0.27 C19.8 -3.99, 15.51 -7.72, 2.95 -18.64 M24.08 -0.27 C19.73 -4.05, 15.38 -7.83, 2.95 -18.64 M34.61 -1.71 C24.23 -10.74, 13.85 -19.76, 5.93 -26.64 M34.61 -1.71 C24.6 -10.42, 14.58 -19.12, 5.93 -26.64 M43.64 -4.47 C37 -10.24, 30.37 -16, 11.18 -32.68 M43.64 -4.47 C34.95 -12.02, 26.26 -19.57, 11.18 -32.68 M42.85 -15.76 C34.57 -22.95, 26.3 -30.14, 17.19 -38.06 M42.85 -15.76 C37.16 -20.7, 31.48 -25.64, 17.19 -38.06" stroke="#ced4da" stroke-width="1" fill="none"></path><path d="M0 0 C0.78 -4.11, 1.34 -18.46, 4.68 -24.67 C8.03 -30.87, 14.94 -36.78, 20.07 -37.23 C25.2 -37.68, 31.83 -33.14, 35.45 -27.36 C39.07 -21.58, 47.71 -7.12, 41.81 -2.56 C35.9 2, 6.97 -0.43, 0 0 M0 0 C0.78 -4.11, 1.34 -18.46, 4.68 -24.67 C8.03 -30.87, 14.94 -36.78, 20.07 -37.23 C25.2 -37.68, 31.83 -33.14, 35.45 -27.36 C39.07 -21.58, 47.71 -7.12, 41.81 -2.56 C35.9 2, 6.97 -0.43, 0 0" stroke="#000000" stroke-width="2" fill="none"></path></g></g><mask></mask><g stroke-linecap="round" transform="translate(610.7654470012228 12.939592201446317) rotate(0 10.702336545928858 9.364544477687787)"><path d="M2.43 3.43 C2.43 3.43, 2.43 3.43, 2.43 3.43 M2.43 3.43 C2.43 3.43, 2.43 3.43, 2.43 3.43 M2.56 15.48 C6.46 10.98, 10.37 6.49, 15.02 1.14 M2.56 15.48 C6.8 10.59, 11.05 5.71, 15.02 1.14 M9.91 19.21 C13.11 15.54, 16.3 11.86, 21.06 6.38 M9.91 19.21 C14.32 14.14, 18.74 9.06, 21.06 6.38 M4.02 16.71 C4.02 16.71, 4.02 16.71, 4.02 16.71 M4.02 16.71 C4.02 16.71, 4.02 16.71, 4.02 16.71 M16.82 17.23 C12.78 13.72, 8.74 10.21, 1.72 4.11 M16.82 17.23 C12.74 13.69, 8.66 10.14, 1.72 4.11 M21.31 10.54 C17.59 7.3, 13.86 4.07, 9.24 0.04 M21.31 10.54 C17.39 7.13, 13.46 3.72, 9.24 0.04" stroke="#ced4da" stroke-width="1" fill="none"></path><path d="M21.4 9.36 C21.4 9.91, 21.35 10.46, 21.24 10.99 C21.13 11.52, 20.97 12.06, 20.76 12.57 C20.55 13.08, 20.28 13.58, 19.97 14.05 C19.66 14.52, 19.3 14.97, 18.9 15.38 C18.5 15.8, 18.06 16.19, 17.58 16.54 C17.11 16.89, 16.59 17.2, 16.05 17.47 C15.52 17.75, 14.94 17.98, 14.36 18.16 C13.78 18.35, 13.17 18.49, 12.56 18.59 C11.95 18.68, 11.32 18.73, 10.7 18.73 C10.08 18.73, 9.45 18.68, 8.84 18.59 C8.23 18.49, 7.62 18.35, 7.04 18.16 C6.46 17.98, 5.89 17.75, 5.35 17.47 C4.81 17.2, 4.3 16.89, 3.82 16.54 C3.35 16.19, 2.9 15.8, 2.5 15.38 C2.11 14.97, 1.74 14.52, 1.43 14.05 C1.12 13.58, 0.86 13.08, 0.65 12.57 C0.43 12.06, 0.27 11.52, 0.16 10.99 C0.06 10.46, 0 9.91, 0 9.36 C0 8.82, 0.06 8.27, 0.16 7.74 C0.27 7.2, 0.43 6.67, 0.65 6.16 C0.86 5.65, 1.12 5.15, 1.43 4.68 C1.74 4.21, 2.11 3.76, 2.5 3.35 C2.9 2.93, 3.35 2.54, 3.82 2.19 C4.3 1.84, 4.81 1.53, 5.35 1.25 C5.89 0.98, 6.46 0.75, 7.04 0.56 C7.62 0.38, 8.23 0.24, 8.84 0.14 C9.45 0.05, 10.08 0, 10.7 0 C11.32 0, 11.95 0.05, 12.56 0.14 C13.17 0.24, 13.78 0.38, 14.36 0.56 C14.94 0.75, 15.52 0.98, 16.05 1.25 C16.59 1.53, 17.11 1.84, 17.58 2.19 C18.06 2.54, 18.5 2.93, 18.9 3.35 C19.3 3.76, 19.66 4.21, 19.97 4.68 C20.28 5.15, 20.55 5.65, 20.76 6.16 C20.97 6.67, 21.13 7.2, 21.24 7.74 C21.35 8.27, 21.38 9.09, 21.4 9.36 C21.43 9.64, 21.43 9.09, 21.4 9.36" stroke="#000000" stroke-width="2" fill="none"></path></g><g stroke-linecap="round"><g transform="translate(629.4306603048637 35.84503883623063) rotate(0 16.71865860152218 9.921154001040179)" fill-rule="evenodd"><path d="M0 0 C0 0, 0 0, 0 0 M0 0 C0 0, 0 0, 0 0 M6.04 5.25 C8.42 2.51, 10.81 -0.24, 17.85 -8.34 M6.04 5.25 C10.58 0.03, 15.12 -5.2, 17.85 -8.34 M12.08 10.5 C16.07 5.9, 20.07 1.3, 25.2 -4.6 M12.08 10.5 C16.89 4.95, 21.71 -0.59, 25.2 -4.6 M15.49 18.76 C19.01 14.72, 22.53 10.67, 31.23 0.65 M15.49 18.76 C19.48 14.18, 23.47 9.59, 31.23 0.65 M16.93 29.3 C23.19 22.1, 29.44 14.91, 33.34 10.43 M16.93 29.3 C22.18 23.26, 27.43 17.22, 33.34 10.43 M29.53 27 C31.43 24.82, 33.32 22.64, 34.78 20.96 M29.53 27 C30.85 25.48, 32.17 23.96, 34.78 20.96 M14.43 27.6 C14.43 27.6, 14.43 27.6, 14.43 27.6 M14.43 27.6 C14.43 27.6, 14.43 27.6, 14.43 27.6 M25.72 26.82 C22.43 23.96, 19.15 21.11, 16.66 18.94 M25.72 26.82 C22.68 24.17, 19.64 21.53, 16.66 18.94 M33.98 23.4 C25.73 16.23, 17.48 9.05, 3.04 -3.5 M33.98 23.4 C23.89 14.62, 13.79 5.85, 3.04 -3.5 M36.97 15.4 C30.45 9.73, 23.94 4.07, 9.8 -8.22 M36.97 15.4 C29.49 8.89, 22 2.39, 9.8 -8.22" stroke="#ced4da" stroke-width="1" fill="none"></path><path d="M0 0 C0.86 -0.93, 3.58 -4.18, 5.17 -5.57 C6.77 -6.97, 7.56 -7.83, 9.55 -8.36 C11.54 -8.89, 14.99 -8.89, 17.12 -8.76 C19.24 -8.62, 20.83 -8.43, 22.29 -7.56 C23.75 -6.7, 24.88 -5.11, 25.87 -3.58 C26.87 -2.06, 27.47 -0.33, 28.26 1.59 C29.06 3.52, 29.92 5.84, 30.65 7.96 C31.38 10.08, 32.18 12.41, 32.64 14.33 C33.11 16.25, 33.44 17.78, 33.44 19.51 C33.44 21.23, 33.3 23.42, 32.64 24.68 C31.98 25.94, 30.72 26.47, 29.46 27.07 C28.2 27.67, 26.87 28, 25.08 28.26 C23.29 28.53, 20.43 28.73, 18.71 28.66 C16.98 28.59, 15.46 28.93, 14.73 27.86 C14 26.8, 14.66 23.82, 14.33 22.29 C14 20.77, 13.47 20.23, 12.74 18.71 C12.01 17.18, 11.08 15.33, 9.95 13.14 C8.82 10.95, 7.63 7.76, 5.97 5.57 C4.31 3.38, 1 0.93, 0 0 M0 0 C0.86 -0.93, 3.58 -4.18, 5.17 -5.57 C6.77 -6.97, 7.56 -7.83, 9.55 -8.36 C11.54 -8.89, 14.99 -8.89, 17.12 -8.76 C19.24 -8.62, 20.83 -8.43, 22.29 -7.56 C23.75 -6.7, 24.88 -5.11, 25.87 -3.58 C26.87 -2.06, 27.47 -0.33, 28.26 1.59 C29.06 3.52, 29.92 5.84, 30.65 7.96 C31.38 10.08, 32.18 12.41, 32.64 14.33 C33.11 16.25, 33.44 17.78, 33.44 19.51 C33.44 21.23, 33.3 23.42, 32.64 24.68 C31.98 25.94, 30.72 26.47, 29.46 27.07 C28.2 27.67, 26.87 28, 25.08 28.26 C23.29 28.53, 20.43 28.73, 18.71 28.66 C16.98 28.59, 15.46 28.93, 14.73 27.86 C14 26.8, 14.66 23.82, 14.33 22.29 C14 20.77, 13.47 20.23, 12.74 18.71 C12.01 17.18, 11.08 15.33, 9.95 13.14 C8.82 10.95, 7.63 7.76, 5.97 5.57 C4.31 3.38, 1 0.93, 0 0" stroke="#000000" stroke-width="2" fill="none"></path></g></g><mask></mask><g stroke-linecap="round"><g transform="translate(611.5118738515298 35.83316293282621) rotate(0 -16.121563651467852 12.19394740044197)" fill-rule="evenodd"><path d="M-24.42 -2.68 C-24.42 -2.68, -24.42 -2.68, -24.42 -2.68 M-24.42 -2.68 C-24.42 -2.68, -24.42 -2.68, -24.42 -2.68 M-26.26 11.62 C-20.78 5.32, -15.31 -0.98, -12.48 -4.23 M-26.26 11.62 C-20.82 5.37, -15.38 -0.89, -12.48 -4.23 M-29.41 27.44 C-19.94 16.55, -10.47 5.66, -2.51 -3.51 M-29.41 27.44 C-19.61 16.16, -9.81 4.89, -2.51 -3.51 M-22.71 31.93 C-17.28 25.69, -11.85 19.44, -8.28 15.33 M-22.71 31.93 C-19.41 28.13, -16.11 24.34, -8.28 15.33 M-12.74 32.65 C-12.05 31.86, -11.36 31.06, -10.77 30.39 M-12.74 32.65 C-11.96 31.76, -11.18 30.86, -10.77 30.39 M-31.63 25.72 C-31.63 25.72, -31.63 25.72, -31.63 25.72 M-31.63 25.72 C-31.63 25.72, -31.63 25.72, -31.63 25.72 M-13.55 30.83 C-17.35 27.53, -21.14 24.23, -29.4 17.05 M-13.55 30.83 C-18.94 26.14, -24.33 21.46, -29.4 17.05 M-6.79 26.11 C-14.32 19.57, -21.84 13.03, -27.92 7.74 M-6.79 26.11 C-12.74 20.93, -18.69 15.76, -27.92 7.74 M-8.34 14.16 C-12.45 10.59, -16.56 7.01, -24.94 -0.27 M-8.34 14.16 C-13.85 9.37, -19.36 4.58, -24.94 -0.27 M-4.6 6.81 C-9.24 2.78, -13.88 -1.25, -20.45 -6.96 M-4.6 6.81 C-9.2 2.81, -13.81 -1.19, -20.45 -6.96 M-0.1 0.12 C-3.53 -2.86, -6.95 -5.83, -12.93 -11.03 M-0.1 0.12 C-4.81 -3.97, -9.52 -8.06, -12.93 -11.03" stroke="#ced4da" stroke-width="1" fill="none"></path><path d="M0 0 C-0.66 -0.73, -2.59 -3.18, -3.98 -4.38 C-5.37 -5.57, -6.37 -6.63, -8.36 -7.17 C-10.35 -7.7, -13.8 -7.7, -15.92 -7.56 C-18.05 -7.43, -19.64 -7.23, -21.1 -6.37 C-22.56 -5.51, -23.68 -3.91, -24.68 -2.39 C-25.68 -0.86, -26.27 0.86, -27.07 2.79 C-27.86 4.71, -28.73 7.03, -29.46 9.16 C-30.19 11.28, -30.98 13.6, -31.45 15.52 C-31.91 17.45, -32.24 18.97, -32.24 20.7 C-32.24 22.42, -32.11 24.61, -31.45 25.87 C-30.78 27.13, -29.46 27.53, -28.26 28.26 C-27.07 28.99, -26.01 29.72, -24.28 30.25 C-22.56 30.78, -20.1 31.25, -17.91 31.45 C-15.72 31.65, -12.41 32.64, -11.15 31.45 C-9.89 30.25, -10.62 26.07, -10.35 24.28 C-10.08 22.49, -9.89 22.29, -9.55 20.7 C-9.22 19.11, -9.16 17.05, -8.36 14.73 C-7.56 12.41, -6.17 9.22, -4.78 6.77 C-3.38 4.31, -0.8 1.13, 0 0 M0 0 C-0.66 -0.73, -2.59 -3.18, -3.98 -4.38 C-5.37 -5.57, -6.37 -6.63, -8.36 -7.17 C-10.35 -7.7, -13.8 -7.7, -15.92 -7.56 C-18.05 -7.43, -19.64 -7.23, -21.1 -6.37 C-22.56 -5.51, -23.68 -3.91, -24.68 -2.39 C-25.68 -0.86, -26.27 0.86, -27.07 2.79 C-27.86 4.71, -28.73 7.03, -29.46 9.16 C-30.19 11.28, -30.98 13.6, -31.45 15.52 C-31.91 17.45, -32.24 18.97, -32.24 20.7 C-32.24 22.42, -32.11 24.61, -31.45 25.87 C-30.78 27.13, -29.46 27.53, -28.26 28.26 C-27.07 28.99, -26.01 29.72, -24.28 30.25 C-22.56 30.78, -20.1 31.25, -17.91 31.45 C-15.72 31.65, -12.41 32.64, -11.15 31.45 C-9.89 30.25, -10.62 26.07, -10.35 24.28 C-10.08 22.49, -9.89 22.29, -9.55 20.7 C-9.22 19.11, -9.16 17.05, -8.36 14.73 C-7.56 12.41, -6.17 9.22, -4.78 6.77 C-3.38 4.31, -0.8 1.13, 0 0" stroke="#000000" stroke-width="2" fill="none"></path></g></g><mask></mask><g stroke-linecap="round"><g transform="translate(600.1553233536482 111.29782976755473) rotate(0 -119.18706051910476 31.550844793453393)"><path d="M-0.63 -0.1 C-40.6 10.2, -198.96 52.25, -238.64 62.96 M1.24 -1.2 C-38.99 9.78, -199.48 53.72, -239.61 64.3" stroke="#000000" stroke-width="1" fill="none"></path></g><g transform="translate(600.1553233536482 111.29782976755473) rotate(0 -119.18706051910476 31.550844793453393)"><path d="M-215.22 46.98 C-225.29 53.56, -233.05 62.37, -238.57 63.69 M-215.87 46.26 C-220.48 50.22, -226.63 55.79, -239.24 63.96" stroke="#000000" stroke-width="1" fill="none"></path></g><g transform="translate(600.1553233536482 111.29782976755473) rotate(0 -119.18706051910476 31.550844793453393)"><path d="M-209.89 66.79 C-222.27 65.47, -232.15 66.41, -238.57 63.69 M-210.53 66.07 C-216.55 65.02, -224.04 65.63, -239.24 63.96" stroke="#000000" stroke-width="1" fill="none"></path></g></g><mask></mask><g stroke-linecap="round"><g transform="translate(606.1840974007466 114.0071885999563) rotate(0 1.6216416066045554 30.088814676146285)"><path d="M-0.28 1.17 C0.41 10.79, 2.65 48.6, 3.53 58.14 M1.77 0.74 C2.32 10.49, 1.83 49.62, 2.32 59.44" stroke="#000000" stroke-width="1" fill="none"></path></g><g transform="translate(606.1840974007466 114.0071885999563) rotate(0 1.6216416066045554 30.088814676146285)"><path d="M-6.19 31.16 C-6.26 40.29, -3.24 44.87, 0.58 59.9 M-8.06 32.2 C-4.88 41.68, -2.03 50.32, 2.42 59.08" stroke="#000000" stroke-width="1" fill="none"></path></g><g transform="translate(606.1840974007466 114.0071885999563) rotate(0 1.6216416066045554 30.088814676146285)"><path d="M13.9 30.85 C8.92 40.02, 7.02 44.67, 0.58 59.9 M12.03 31.9 C8.58 41.48, 4.8 50.22, 2.42 59.08" stroke="#000000" stroke-width="1" fill="none"></path></g></g><mask></mask><g stroke-linecap="round"><g transform="translate(615.0338784933297 110.25359771756678) rotate(0 95.02667955076413 32.61385924137761)"><path d="M1.01 0.29 C32.65 11.07, 158.48 55.12, 189.97 65.83 M0.09 -0.6 C31.59 10.35, 157.71 53.08, 189.26 64.11" stroke="#000000" stroke-width="1" fill="none"></path></g><g transform="translate(615.0338784933297 110.25359771756678) rotate(0 95.02667955076413 32.61385924137761)"><path d="M159.75 65.42 C169.95 64.93, 177.21 62.74, 189.93 62.89 M159.2 64.56 C165.8 65, 172.55 65.25, 189.23 64.53" stroke="#000000" stroke-width="1" fill="none"></path></g><g transform="translate(615.0338784933297 110.25359771756678) rotate(0 95.02667955076413 32.61385924137761)"><path d="M166.42 46.01 C174.72 51.66, 179.89 55.55, 189.93 62.89 M165.87 45.16 C170.92 49.77, 176.22 54.24, 189.23 64.53" stroke="#000000" stroke-width="1" fill="none"></path></g></g><mask></mask><g stroke-linecap="round" transform="translate(526.1352391427451 177.98221516212595) rotate(0 75.5 39.5)"><path d="M19.75 0 M19.75 0 C49.47 -1.3, 77.57 0.88, 131.25 0 M19.75 0 C45.6 -0.94, 71.33 -0.82, 131.25 0 M131.25 0 C145.44 0.3, 152.87 6.38, 151 19.75 M131.25 0 C143.72 0.15, 151.44 4.34, 151 19.75 M151 19.75 C151.56 28.96, 151.89 40.8, 151 59.25 M151 19.75 C150.59 30.99, 151.66 42.29, 151 59.25 M151 59.25 C150.61 70.44, 145.79 80.8, 131.25 79 M151 59.25 C148.84 72.52, 145.61 79.3, 131.25 79 M131.25 79 C98.45 80.5, 64.87 76.98, 19.75 79 M131.25 79 C100.2 78.4, 69.66 79.03, 19.75 79 M19.75 79 C7.13 78.08, 1.91 74.26, 0 59.25 M19.75 79 C8.03 77.18, -1.12 71.21, 0 59.25 M0 59.25 C-1.14 50.82, 0.63 41.27, 0 19.75 M0 59.25 C-0.29 46.82, -0.48 35.52, 0 19.75 M0 19.75 C-0.97 7.78, 7.89 -0.23, 19.75 0 M0 19.75 C0.28 7.88, 6.95 0.49, 19.75 0" stroke="#000000" stroke-width="1" fill="none"></path></g><g transform="translate(555.7152791207725 204.98221516212595) rotate(0 45.919960021972656 12.5)"><text x="45.919960021972656" y="0" font-family="Virgil, Segoe UI Emoji" font-size="20px" fill="#000000" text-anchor="middle" style="white-space: pre;" direction="ltr" dominant-baseline="text-before-edge">System B</text></g><g stroke-linecap="round" transform="translate(661.9075655882191 236.07793809192196) rotate(0 13.039993286132812 19.113036677485923)"><path d="M0 0 C0 0, 0 0, 0 0 M0 0 C0 0, 0 0, 0 0 M0.13 12.04 C3.49 8.17, 6.86 4.31, 10.63 -0.03 M0.13 12.04 C2.66 9.13, 5.19 6.22, 10.63 -0.03 M0.27 24.08 C8.07 15.11, 15.87 6.13, 21.26 -0.07 M0.27 24.08 C7.16 16.15, 14.06 8.22, 21.26 -0.07 M-0.26 36.88 C7.79 27.62, 15.83 18.37, 29.27 2.92 M-0.26 36.88 C11.06 23.86, 22.37 10.85, 29.27 2.92 M5.12 42.88 C13.65 33.07, 22.18 23.26, 29.4 14.96 M5.12 42.88 C14.18 32.46, 23.24 22.05, 29.4 14.96 M15.76 42.85 C21.22 36.56, 26.69 30.27, 29.53 27 M15.76 42.85 C18.69 39.47, 21.63 36.09, 29.53 27 M-0.06 38.17 C-0.06 38.17, -0.06 38.17, -0.06 38.17 M-0.06 38.17 C-0.06 38.17, -0.06 38.17, -0.06 38.17 M11.98 38.04 C8.38 34.91, 4.79 31.79, -0.09 27.54 M11.98 38.04 C8.49 35.01, 5 31.98, -0.09 27.54 M24.02 37.91 C15.19 30.23, 6.35 22.55, -0.13 16.91 M24.02 37.91 C18.96 33.51, 13.91 29.11, -0.13 16.91 M30.78 33.18 C23.27 26.65, 15.76 20.12, -0.16 6.28 M30.78 33.18 C23.61 26.95, 16.44 20.71, -0.16 6.28 M30.75 22.55 C24.77 17.36, 18.8 12.17, 2.07 -2.38 M30.75 22.55 C20.15 13.34, 9.55 4.13, 2.07 -2.38 M30.71 11.92 C26.42 8.2, 22.14 4.47, 14.11 -2.51 M30.71 11.92 C26.93 8.64, 23.16 5.36, 14.11 -2.51" stroke="#ced4da" stroke-width="1" fill="none"></path><path d="M0 0 C5.93 0, 11.86 0, 26.08 0 M0 0 C9.78 0, 19.56 0, 26.08 0 M26.08 0 C26.08 8.19, 26.08 16.39, 26.08 38.23 M26.08 0 C26.08 11.89, 26.08 23.79, 26.08 38.23 M26.08 38.23 C17.46 38.23, 8.83 38.23, 0 38.23 M26.08 38.23 C20.31 38.23, 14.54 38.23, 0 38.23 M0 38.23 C0 26.94, 0 15.65, 0 0 M0 38.23 C0 23.18, 0 8.14, 0 0" stroke="#000000" stroke-width="2" fill="none"></path></g><g stroke-linecap="round"><g transform="translate(664.3717443791008 240.30671631862003) rotate(0 7.8499972068245825 5.684341886080802e-14)"><path d="M0 0 C2.62 0, 13.08 0, 15.7 0 M0 0 C2.62 0, 13.08 0, 15.7 0" stroke="#000000" stroke-width="2" fill="none"></path></g></g><mask></mask><g stroke-linecap="round"><g transform="translate(664.2966951729047 243.8254811581504) rotate(0 7.8499972068245825 5.684341886080802e-14)"><path d="M0 0 C2.62 0, 13.08 0, 15.7 0 M0 0 C2.62 0, 13.08 0, 15.7 0" stroke="#000000" stroke-width="2" fill="none"></path></g></g><mask></mask><g stroke-linecap="round"><g transform="translate(664.2797242706067 247.34424599768147) rotate(0 7.8499972068245825 5.684341886080802e-14)"><path d="M0 0 C2.62 0, 13.08 0, 15.7 0 M0 0 C2.62 0, 13.08 0, 15.7 0" stroke="#000000" stroke-width="2" fill="none"></path></g></g><mask></mask><g stroke-linecap="round"><g transform="translate(664.2797242706067 250.86301083721207) rotate(0 7.8499972068245825 5.684341886080802e-14)"><path d="M0 0 C2.62 0, 13.08 0, 15.7 0 M0 0 C2.62 0, 13.08 0, 15.7 0" stroke="#000000" stroke-width="2" fill="none"></path></g></g><mask></mask><g stroke-linecap="round" transform="translate(752.4105589221937 180.04633343077137) rotate(0 75.49999999999994 39.5)"><path d="M19.75 0 M19.75 0 C49.47 -1.3, 77.57 0.88, 131.25 0 M19.75 0 C45.6 -0.94, 71.33 -0.82, 131.25 0 M131.25 0 C145.44 0.3, 152.87 6.38, 151 19.75 M131.25 0 C143.72 0.15, 151.44 4.34, 151 19.75 M151 19.75 C151.56 28.96, 151.89 40.8, 151 59.25 M151 19.75 C150.59 30.99, 151.66 42.29, 151 59.25 M151 59.25 C150.61 70.44, 145.79 80.8, 131.25 79 M151 59.25 C148.84 72.52, 145.61 79.3, 131.25 79 M131.25 79 C98.45 80.5, 64.87 76.98, 19.75 79 M131.25 79 C100.2 78.4, 69.66 79.03, 19.75 79 M19.75 79 C7.13 78.08, 1.91 74.26, 0 59.25 M19.75 79 C8.03 77.18, -1.12 71.21, 0 59.25 M0 59.25 C-1.14 50.82, 0.63 41.27, 0 19.75 M0 59.25 C-0.29 46.82, -0.48 35.52, 0 19.75 M0 19.75 C-0.97 7.78, 7.89 -0.23, 19.75 0 M0 19.75 C0.28 7.88, 6.95 0.49, 19.75 0" stroke="#000000" stroke-width="1" fill="none"></path></g><g transform="translate(781.0406019519788 207.04633343077137) rotate(0 46.86995697021479 12.5)"><text x="46.869956970214844" y="0" font-family="Virgil, Segoe UI Emoji" font-size="20px" fill="#000000" text-anchor="middle" style="white-space: pre;" direction="ltr" dominant-baseline="text-before-edge">System ...</text></g><g stroke-linecap="round" transform="translate(888.0856741462239 238.04484513912405) rotate(0 13.039993286132812 19.113036677485923)"><path d="M0 0 C0 0, 0 0, 0 0 M0 0 C0 0, 0 0, 0 0 M0.13 12.04 C3.49 8.17, 6.86 4.31, 10.63 -0.03 M0.13 12.04 C2.66 9.13, 5.19 6.22, 10.63 -0.03 M0.27 24.08 C8.07 15.11, 15.87 6.13, 21.26 -0.07 M0.27 24.08 C7.16 16.15, 14.06 8.22, 21.26 -0.07 M-0.26 36.88 C7.79 27.62, 15.83 18.37, 29.27 2.92 M-0.26 36.88 C11.06 23.86, 22.37 10.85, 29.27 2.92 M5.12 42.88 C13.65 33.07, 22.18 23.26, 29.4 14.96 M5.12 42.88 C14.18 32.46, 23.24 22.05, 29.4 14.96 M15.76 42.85 C21.22 36.56, 26.69 30.27, 29.53 27 M15.76 42.85 C18.69 39.47, 21.63 36.09, 29.53 27 M-0.06 38.17 C-0.06 38.17, -0.06 38.17, -0.06 38.17 M-0.06 38.17 C-0.06 38.17, -0.06 38.17, -0.06 38.17 M11.98 38.04 C8.38 34.91, 4.79 31.79, -0.09 27.54 M11.98 38.04 C8.49 35.01, 5 31.98, -0.09 27.54 M24.02 37.91 C15.19 30.23, 6.35 22.55, -0.13 16.91 M24.02 37.91 C18.96 33.51, 13.91 29.11, -0.13 16.91 M30.78 33.18 C23.27 26.65, 15.76 20.12, -0.16 6.28 M30.78 33.18 C23.61 26.95, 16.44 20.71, -0.16 6.28 M30.75 22.55 C24.77 17.36, 18.8 12.17, 2.07 -2.38 M30.75 22.55 C20.15 13.34, 9.55 4.13, 2.07 -2.38 M30.71 11.92 C26.42 8.2, 22.14 4.47, 14.11 -2.51 M30.71 11.92 C26.93 8.64, 23.16 5.36, 14.11 -2.51" stroke="#ced4da" stroke-width="1" fill="none"></path><path d="M0 0 C5.93 0, 11.86 0, 26.08 0 M0 0 C9.78 0, 19.56 0, 26.08 0 M26.08 0 C26.08 8.19, 26.08 16.39, 26.08 38.23 M26.08 0 C26.08 11.89, 26.08 23.79, 26.08 38.23 M26.08 38.23 C17.46 38.23, 8.83 38.23, 0 38.23 M26.08 38.23 C20.31 38.23, 14.54 38.23, 0 38.23 M0 38.23 C0 26.94, 0 15.65, 0 0 M0 38.23 C0 23.18, 0 8.14, 0 0" stroke="#000000" stroke-width="2" fill="none"></path></g><g stroke-linecap="round"><g transform="translate(890.5498529371057 242.27362336582212) rotate(0 7.8499972068245825 5.684341886080802e-14)"><path d="M0 0 C2.62 0, 13.08 0, 15.7 0 M0 0 C2.62 0, 13.08 0, 15.7 0" stroke="#000000" stroke-width="2" fill="none"></path></g></g><mask></mask><g stroke-linecap="round"><g transform="translate(890.4748037309096 245.7923882053525) rotate(0 7.8499972068245825 5.684341886080802e-14)"><path d="M0 0 C2.62 0, 13.08 0, 15.7 0 M0 0 C2.62 0, 13.08 0, 15.7 0" stroke="#000000" stroke-width="2" fill="none"></path></g></g><mask></mask><g stroke-linecap="round"><g transform="translate(890.4578328286116 249.31115304488355) rotate(0 7.8499972068245825 5.684341886080802e-14)"><path d="M0 0 C2.62 0, 13.08 0, 15.7 0 M0 0 C2.62 0, 13.08 0, 15.7 0" stroke="#000000" stroke-width="2" fill="none"></path></g></g><mask></mask><g stroke-linecap="round"><g transform="translate(890.4578328286116 252.82991788441416) rotate(0 7.8499972068245825 5.684341886080802e-14)"><path d="M0 0 C2.62 0, 13.08 0, 15.7 0 M0 0 C2.62 0, 13.08 0, 15.7 0" stroke="#000000" stroke-width="2" fill="none"></path></g></g><mask></mask><g stroke-linecap="round"><g transform="translate(327.1442900096041 262.87244270224335) rotate(0 177.63230171914506 49.09204580373074)"><path d="M-0.95 0.3 C58.37 16.5, 296.86 81.13, 356.22 97.32 M0.75 -0.59 C59.96 15.79, 296.75 82.21, 355.68 98.77" stroke="#000000" stroke-width="1" fill="none"></path></g><g transform="translate(327.1442900096041 262.87244270224335) rotate(0 177.63230171914506 49.09204580373074)"><path d="M326.27 102.34 C335.09 100.18, 344.94 100.31, 357.16 100.34 M325.14 100.99 C338.05 100.62, 349.22 100, 356.53 97.87" stroke="#000000" stroke-width="1" fill="none"></path></g><g transform="translate(327.1442900096041 262.87244270224335) rotate(0 177.63230171914506 49.09204580373074)"><path d="M331.81 82.58 C338.88 86.72, 346.95 93.19, 357.16 100.34 M330.68 81.23 C341.42 88.32, 350.5 95.17, 356.53 97.87" stroke="#000000" stroke-width="1" fill="none"></path></g></g><mask></mask><g stroke-linecap="round"><g transform="translate(613.6544499166521 260.9092086693547) rotate(0 38.00638840999716 48.72339124568134)"><path d="M-0.72 0.47 C12.25 16.67, 63.92 81.69, 76.74 97.77 M1.1 -0.33 C14.11 15.47, 63.96 79.51, 76.41 95.91" stroke="#000000" stroke-width="1" fill="none"></path></g><g transform="translate(613.6544499166521 260.9092086693547) rotate(0 38.00638840999716 48.72339124568134)"><path d="M51.86 81.82 C57.24 84.42, 61.15 87.57, 76.01 94.4 M51.12 80.26 C56.64 84.44, 63.06 86.81, 75.95 96.02" stroke="#000000" stroke-width="1" fill="none"></path></g><g transform="translate(613.6544499166521 260.9092086693547) rotate(0 38.00638840999716 48.72339124568134)"><path d="M68.12 69.29 C70.18 74.39, 70.72 80.14, 76.01 94.4 M67.38 67.73 C69.13 74.73, 71.91 79.91, 75.95 96.02" stroke="#000000" stroke-width="1" fill="none"></path></g></g><mask></mask><g stroke-linecap="round"><g transform="translate(838.3948339527562 264.56947551033363) rotate(0 -67.78513875108916 48.639261561490116)"><path d="M-0.82 -0.1 C-23.52 16.48, -113.03 82.19, -135.61 98.48 M0.96 -1.2 C-21.95 15.16, -113.47 80.21, -136.53 96.92" stroke="#000000" stroke-width="1" fill="none"></path></g><g transform="translate(838.3948339527562 264.56947551033363) rotate(0 -67.78513875108916 48.639261561490116)"><path d="M-119.76 72.26 C-123.98 79.71, -131.36 89.14, -134.9 97.52 M-119.08 71.31 C-125.84 82.31, -132.15 92.05, -136.62 97.07" stroke="#000000" stroke-width="1" fill="none"></path></g><g transform="translate(838.3948339527562 264.56947551033363) rotate(0 -67.78513875108916 48.639261561490116)"><path d="M-107.81 88.94 C-116.08 90.45, -127.66 94.02, -134.9 97.52 M-107.13 87.99 C-118.38 92.62, -129.27 95.95, -136.62 97.07" stroke="#000000" stroke-width="1" fill="none"></path></g></g><mask></mask><g stroke-linecap="round"><g transform="translate(385.7085594652664 412.455347603581) rotate(0 108.80284420552135 4.866804590271727)"><path d="M0.66 -0.77 C36.84 0.8, 182.07 8.78, 218.06 10.5 M-0.45 1.44 C35.53 3.21, 180.84 7.33, 217.42 8.9" stroke="#000000" stroke-width="1" fill="none"></path></g><g transform="translate(385.7085594652664 412.455347603581) rotate(0 108.80284420552135 4.866804590271727)"><path d="M187.61 19.17 C201.43 13, 210.83 12.57, 215.91 10.86 M187.92 19.15 C195.15 16.62, 200.8 13.27, 217.04 8.19" stroke="#000000" stroke-width="1" fill="none"></path></g><g transform="translate(385.7085594652664 412.455347603581) rotate(0 108.80284420552135 4.866804590271727)"><path d="M188.33 -1.34 C202.06 0.39, 211.18 7.84, 215.91 10.86 M188.64 -1.36 C195.86 0.75, 201.35 2.02, 217.04 8.19" stroke="#000000" stroke-width="1" fill="none"></path></g></g><mask></mask><g stroke-linecap="round"><g transform="translate(102.30408051420048 413.1984926894768) rotate(0 58.09908343933736 0.9294295852384948)"><path d="M0.3 -1.2 C19.71 -0.8, 97.72 1.27, 117.2 1.92 M-1 0.79 C18.14 1.37, 96.47 2.51, 116 3.06" stroke="#000000" stroke-width="1" fill="none"></path></g><g transform="translate(102.30408051420048 413.1984926894768) rotate(0 58.09908343933736 0.9294295852384948)"><path d="M85.61 11.93 C96.67 8.3, 108.33 7.48, 117.83 1.58 M88.55 11.95 C95 10.68, 103.2 6.97, 115.58 2.29" stroke="#000000" stroke-width="1" fill="none"></path></g><g transform="translate(102.30408051420048 413.1984926894768) rotate(0 58.09908343933736 0.9294295852384948)"><path d="M86.03 -8.58 C96.86 -4.77, 108.36 1.87, 117.83 1.58 M88.97 -8.57 C95.12 -3.96, 103.2 -1.79, 115.58 2.29" stroke="#000000" stroke-width="1" fill="none"></path></g></g><mask></mask></svg>