<svg version="1.1" xmlns="http://www.w3.org/2000/svg" viewBox="0 0 619.327457702629 227.796875" width="1238.654915405258" height="455.59375">
  <!-- svg-source:excalidraw -->
  
  <defs>
    <style class="style-fonts">
      @font-face {
        font-family: "Virgil";
        src: url("https://file%2B.vscode-resource.vscode-cdn.net/Users/yannick.habecker/.vscode/extensions/pomdtr.excalidraw-editor-3.5.1/public//dist/excalidraw-assets/Virgil.woff2");
      }
      @font-face {
        font-family: "Cascadia";
        src: url("https://file%2B.vscode-resource.vscode-cdn.net/Users/yannick.habecker/.vscode/extensions/pomdtr.excalidraw-editor-3.5.1/public//dist/excalidraw-assets/Cascadia.woff2");
      }
    </style>
  </defs>
  <rect x="0" y="0" width="619.327457702629" height="227.796875" fill="#ffffff00"></rect><g transform="translate(12.7872206485074 156.86729939791758) rotate(0 22.339981079101562 12.5)"><text x="0" y="0" font-family="Virgil, Segoe UI Emoji" font-size="20px" fill="#000000" text-anchor="start" style="white-space: pre;" direction="ltr" dominant-baseline="text-before-edge">User</text></g><g stroke-linecap="round"><g transform="translate(10 147.21437338793885) rotate(0 25.819645202628976 -21.79569932933711)" fill-rule="evenodd"><path d="M13.47 -38.64 C13.47 -38.64, 13.47 -38.64, 13.47 -38.64 M13.47 -38.64 C13.47 -38.64, 13.47 -38.64, 13.47 -38.64 M7.04 -19.05 C11.7 -24.41, 16.36 -29.77, 26.72 -41.69 M7.04 -19.05 C12 -24.75, 16.95 -30.45, 26.72 -41.69 M0.61 0.53 C13.03 -13.75, 25.45 -28.04, 35.39 -39.47 M0.61 0.53 C7.58 -7.48, 14.54 -15.49, 35.39 -39.47 M11.24 0.5 C18.01 -7.28, 24.78 -15.07, 40.77 -33.46 M11.24 0.5 C17.36 -6.54, 23.48 -13.57, 40.77 -33.46 M21.87 0.47 C28.31 -6.93, 34.74 -14.33, 46.81 -28.21 M21.87 0.47 C27.82 -6.37, 33.76 -13.2, 46.81 -28.21 M29.22 4.2 C36.99 -4.73, 44.75 -13.66, 50.87 -20.7 M29.22 4.2 C36.96 -4.7, 44.7 -13.6, 50.87 -20.7 M41.82 1.91 C45.97 -2.86, 50.11 -7.63, 54.94 -13.19 M41.82 1.91 C44.67 -1.37, 47.51 -4.64, 54.94 -13.19 M0 0 C0 0, 0 0, 0 0 M0 0 C0 0, 0 0, 0 0 M12.04 -0.13 C8.43 -3.27, 4.83 -6.4, 1.47 -9.32 M12.04 -0.13 C8.34 -3.35, 4.63 -6.58, 1.47 -9.32 M24.84 0.39 C16.95 -6.47, 9.06 -13.33, 2.95 -18.64 M24.84 0.39 C18.56 -5.07, 12.28 -10.53, 2.95 -18.64 M30.08 -5.65 C21.75 -12.9, 13.41 -20.14, 6.69 -25.99 M30.08 -5.65 C21.47 -13.14, 12.85 -20.63, 6.69 -25.99 M45.9 -2.5 C33.17 -13.56, 20.44 -24.63, 9.67 -33.99 M45.9 -2.5 C36.9 -10.32, 27.9 -18.14, 9.67 -33.99 M52.66 -7.23 C41.58 -16.86, 30.5 -26.48, 14.92 -40.03 M52.66 -7.23 C44.64 -14.2, 36.62 -21.17, 14.92 -40.03 M51.11 -19.17 C41.57 -27.46, 32.03 -35.76, 20.92 -45.41 M51.11 -19.17 C39.97 -28.86, 28.82 -38.55, 20.92 -45.41" stroke="#ced4da" stroke-width="1" fill="none"></path><path d="M0 0 C0.92 -4.85, 1.58 -21.76, 5.52 -29.07 C9.46 -36.38, 17.61 -43.34, 23.65 -43.87 C29.69 -44.4, 37.51 -39.05, 41.78 -32.24 C46.05 -25.43, 56.23 -8.39, 49.27 -3.02 C42.31 2.36, 8.21 -0.5, 0 0 M0 0 C0.92 -4.85, 1.58 -21.76, 5.52 -29.07 C9.46 -36.38, 17.61 -43.34, 23.65 -43.87 C29.69 -44.4, 37.51 -39.05, 41.78 -32.24 C46.05 -25.43, 56.23 -8.39, 49.27 -3.02 C42.31 2.36, 8.21 -0.5, 0 0" stroke="#000000" stroke-width="2" fill="none"></path></g></g><mask></mask><g stroke-linecap="round" transform="translate(22.453870836315673 80.52332560208242) rotate(0 12.6129717038432 11.036350240862845)"><path d="M2.98 3.91 C2.98 3.91, 2.98 3.91, 2.98 3.91 M2.98 3.91 C2.98 3.91, 2.98 3.91, 2.98 3.91 M2.45 16.71 C5.78 12.89, 9.1 9.07, 16.23 0.86 M2.45 16.71 C7.3 11.13, 12.15 5.55, 16.23 0.86 M8.49 21.96 C13.31 16.41, 18.13 10.87, 23.58 4.6 M8.49 21.96 C12.58 17.26, 16.66 12.56, 23.58 4.6 M4.36 19.37 C4.36 19.37, 4.36 19.37, 4.36 19.37 M4.36 19.37 C4.36 19.37, 4.36 19.37, 4.36 19.37 M17.91 20.55 C13.15 16.41, 8.39 12.27, 1.31 6.11 M17.91 20.55 C13.91 17.07, 9.92 13.59, 1.31 6.11 M24.67 15.82 C19.9 11.67, 15.12 7.52, 7.31 0.73 M24.67 15.82 C20.35 12.06, 16.02 8.3, 7.31 0.73" stroke="#ced4da" stroke-width="1" fill="none"></path><path d="M25.23 11.04 C25.23 11.68, 25.16 12.32, 25.03 12.95 C24.91 13.58, 24.71 14.21, 24.47 14.81 C24.22 15.41, 23.9 16, 23.54 16.55 C23.17 17.11, 22.74 17.64, 22.28 18.13 C21.81 18.62, 21.28 19.08, 20.72 19.49 C20.16 19.9, 19.55 20.27, 18.92 20.59 C18.29 20.91, 17.61 21.19, 16.93 21.41 C16.24 21.63, 15.52 21.79, 14.8 21.91 C14.08 22.02, 13.34 22.07, 12.61 22.07 C11.88 22.07, 11.14 22.02, 10.42 21.91 C9.7 21.79, 8.99 21.63, 8.3 21.41 C7.61 21.19, 6.94 20.91, 6.31 20.59 C5.67 20.27, 5.06 19.9, 4.51 19.49 C3.95 19.08, 3.42 18.62, 2.95 18.13 C2.48 17.64, 2.05 17.11, 1.69 16.55 C1.32 16, 1.01 15.41, 0.76 14.81 C0.51 14.21, 0.32 13.58, 0.19 12.95 C0.06 12.32, 0 11.68, 0 11.04 C0 10.4, 0.06 9.75, 0.19 9.12 C0.32 8.49, 0.51 7.86, 0.76 7.26 C1.01 6.66, 1.32 6.07, 1.69 5.52 C2.05 4.96, 2.48 4.43, 2.95 3.94 C3.42 3.45, 3.95 2.99, 4.51 2.58 C5.06 2.17, 5.67 1.8, 6.31 1.48 C6.94 1.16, 7.61 0.88, 8.3 0.67 C8.99 0.45, 9.7 0.28, 10.42 0.17 C11.14 0.06, 11.88 0, 12.61 0 C13.34 0, 14.08 0.06, 14.8 0.17 C15.52 0.28, 16.24 0.45, 16.93 0.67 C17.61 0.88, 18.29 1.16, 18.92 1.48 C19.55 1.8, 20.16 2.17, 20.72 2.58 C21.28 2.99, 21.81 3.45, 22.28 3.94 C22.74 4.43, 23.17 4.96, 23.54 5.52 C23.9 6.07, 24.22 6.66, 24.47 7.26 C24.71 7.86, 24.91 8.49, 25.03 9.12 C25.16 9.75, 25.19 10.72, 25.23 11.04 C25.26 11.36, 25.26 10.72, 25.23 11.04" stroke="#000000" stroke-width="2" fill="none"></path></g><g stroke-linecap="round"><g transform="translate(76.50714520262898 121.62890625) rotate(0 84.33531601591035 -35.00848173860342)"><path d="M0 0.59 C28.35 -10.66, 141.61 -57.2, 170.13 -68.6 M-1.46 -0.14 C26.72 -11.69, 140.42 -59.03, 169.14 -70.61" stroke="#000000" stroke-width="1" fill="none"></path></g><g transform="translate(76.50714520262898 121.62890625) rotate(0 84.33531601591035 -35.00848173860342)"><path d="M147.95 -50.54 C154.21 -54.97, 162.26 -63.17, 168.12 -70.75 M145.98 -50.31 C154.94 -56.22, 160.72 -64.39, 168.64 -70.11" stroke="#000000" stroke-width="1" fill="none"></path></g><g transform="translate(76.50714520262898 121.62890625) rotate(0 84.33531601591035 -35.00848173860342)"><path d="M140.16 -69.53 C148.6 -68.2, 159.02 -70.66, 168.12 -70.75 M138.19 -69.3 C149.47 -69.1, 157.76 -71.17, 168.64 -70.11" stroke="#000000" stroke-width="1" fill="none"></path></g></g><mask></mask><g stroke-linecap="round" transform="translate(248.72589520262898 12.22265625) rotate(0 74 36)"><path d="M18 0 M18 0 C55.17 -0.01, 97.27 1.04, 130 0 M18 0 C41.68 0.95, 66.94 0.28, 130 0 M130 0 C143.94 1.39, 146.22 6.56, 148 18 M130 0 C144.19 0.51, 146.75 5.36, 148 18 M148 18 C148.64 28.2, 146.96 35.59, 148 54 M148 18 C148.63 32.94, 148.02 47.23, 148 54 M148 54 C148.63 64.18, 143.6 73.14, 130 72 M148 54 C148.56 67.4, 142.86 72.35, 130 72 M130 72 C98.2 74.91, 64.86 71.76, 18 72 M130 72 C87.8 73.11, 47.81 73.05, 18 72 M18 72 C6.55 71.09, 1.12 64.63, 0 54 M18 72 C5.09 70.77, 0.73 67.79, 0 54 M0 54 C0.08 39.73, 1.79 26.45, 0 18 M0 54 C1.04 44.22, 1.18 35.51, 0 18 M0 18 C0.14 4.07, 7.99 -1.05, 18 0 M0 18 C1.14 5.48, 6.18 -0.82, 18 0" stroke="#000000" stroke-width="1" fill="none"></path></g><g transform="translate(256.75594738768757 35.72265625) rotate(0 65.9699478149414 12.5)"><text x="65.9699478149414" y="0" font-family="Virgil, Segoe UI Emoji" font-size="20px" fill="#000000" text-anchor="middle" style="white-space: pre;" direction="ltr" dominant-baseline="text-before-edge">Voila-Backend</text></g><g transform="translate(124.88605145262898 50.96875) rotate(0 28.199974060058594 12.5)"><text x="0" y="0" font-family="Virgil, Segoe UI Emoji" font-size="20px" fill="#000000" text-anchor="start" style="white-space: pre;" direction="ltr" dominant-baseline="text-before-edge">HTTP</text></g><g stroke-linecap="round"><g transform="translate(403.1783826879225 49.259385386538895) rotate(0 33.501234919810145 0.13486382347457493)"><path d="M0.85 -0.48 C12 -0.56, 56.19 0.4, 67.17 0.51 M-0.17 -1.77 C10.89 -1.13, 55.62 1.52, 66.69 2.04" stroke="#000000" stroke-width="1" fill="none"></path></g><g transform="translate(403.1783826879225 49.259385386538895) rotate(0 33.501234919810145 0.13486382347457493)"><path d="M37.19 12.25 C47.06 8.58, 55.72 3.38, 65.42 3.82 M37.35 10.33 C49.67 7.46, 60.32 4.78, 67.42 1.76" stroke="#000000" stroke-width="1" fill="none"></path></g><g transform="translate(403.1783826879225 49.259385386538895) rotate(0 33.501234919810145 0.13486382347457493)"><path d="M38.3 -8.24 C47.99 -5.36, 56.29 -4.01, 65.42 3.82 M38.46 -10.16 C50.22 -5.12, 60.44 0.12, 67.42 1.76" stroke="#000000" stroke-width="1" fill="none"></path></g></g><mask></mask><g stroke-linecap="round" transform="translate(473.327457702629 10) rotate(0 68 39.5)"><path d="M19.75 0 M19.75 0 C45.54 -1.39, 69.71 0.8, 116.25 0 M19.75 0 C42.16 -0.95, 64.45 -0.82, 116.25 0 M116.25 0 C130.44 0.3, 137.87 6.38, 136 19.75 M116.25 0 C128.72 0.15, 136.44 4.34, 136 19.75 M136 19.75 C136.56 28.96, 136.89 40.8, 136 59.25 M136 19.75 C135.59 30.99, 136.66 42.29, 136 59.25 M136 59.25 C135.61 70.44, 130.79 80.8, 116.25 79 M136 59.25 C133.84 72.52, 130.61 79.3, 116.25 79 M116.25 79 C87.79 80.51, 58.56 77, 19.75 79 M116.25 79 C89.28 78.43, 62.84 79.06, 19.75 79 M19.75 79 C7.13 78.08, 1.91 74.26, 0 59.25 M19.75 79 C8.03 77.18, -1.12 71.21, 0 59.25 M0 59.25 C-1.14 50.82, 0.63 41.27, 0 19.75 M0 59.25 C-0.29 46.82, -0.48 35.52, 0 19.75 M0 19.75 C-0.97 7.78, 7.89 -0.23, 19.75 0 M0 19.75 C0.28 7.88, 6.95 0.49, 19.75 0" stroke="#000000" stroke-width="1" fill="none"></path></g><g transform="translate(512.6574824218673 24.5) rotate(0 28.66997528076172 25)"><text x="28.66997528076172" y="0" font-family="Virgil, Segoe UI Emoji" font-size="20px" fill="#000000" text-anchor="middle" style="white-space: pre;" direction="ltr" dominant-baseline="text-before-edge">Start</text><text x="28.66997528076172" y="25" font-family="Virgil, Segoe UI Emoji" font-size="20px" fill="#000000" text-anchor="middle" style="white-space: pre;" direction="ltr" dominant-baseline="text-before-edge">Kernel</text></g><g stroke-linecap="round" transform="translate(472.835270202629 138.796875) rotate(0 68 39.5)"><path d="M19.75 0 M19.75 0 C45.54 -1.39, 69.71 0.8, 116.25 0 M19.75 0 C42.16 -0.95, 64.45 -0.82, 116.25 0 M116.25 0 C130.44 0.3, 137.87 6.38, 136 19.75 M116.25 0 C128.72 0.15, 136.44 4.34, 136 19.75 M136 19.75 C136.56 28.96, 136.89 40.8, 136 59.25 M136 19.75 C135.59 30.99, 136.66 42.29, 136 59.25 M136 59.25 C135.61 70.44, 130.79 80.8, 116.25 79 M136 59.25 C133.84 72.52, 130.61 79.3, 116.25 79 M116.25 79 C87.79 80.51, 58.56 77, 19.75 79 M116.25 79 C89.28 78.43, 62.84 79.06, 19.75 79 M19.75 79 C7.13 78.08, 1.91 74.26, 0 59.25 M19.75 79 C8.03 77.18, -1.12 71.21, 0 59.25 M0 59.25 C-1.14 50.82, 0.63 41.27, 0 19.75 M0 59.25 C-0.29 46.82, -0.48 35.52, 0 19.75 M0 19.75 C-0.97 7.78, 7.89 -0.23, 19.75 0 M0 19.75 C0.28 7.88, 6.95 0.49, 19.75 0" stroke="#000000" stroke-width="1" fill="none"></path></g><g transform="translate(493.68531445311726 153.296875) rotate(0 47.14995574951172 25)"><text x="47.14995574951172" y="0" font-family="Virgil, Segoe UI Emoji" font-size="20px" fill="#000000" text-anchor="middle" style="white-space: pre;" direction="ltr" dominant-baseline="text-before-edge">Zellen </text><text x="47.14995574951172" y="25" font-family="Virgil, Segoe UI Emoji" font-size="20px" fill="#000000" text-anchor="middle" style="white-space: pre;" direction="ltr" dominant-baseline="text-before-edge">ausführen</text></g><g stroke-linecap="round"><g transform="translate(540.7289984523962 95.85983257331367) rotate(0 0.3295103438114779 17.42141742668636)"><path d="M0.85 -0.48 C0.87 5.2, 0.51 29.21, 0.36 35.08 M-0.17 -1.77 C-0.25 4.63, -0.05 30.33, -0.12 36.61" stroke="#000000" stroke-width="1" fill="none"></path></g><g transform="translate(540.7289984523962 95.85983257331367) rotate(0 0.3295103438114779 17.42141742668636)"><path d="M-6.81 21.42 C-4.08 26.05, -2.61 29.2, -1.23 38.17 M-6.68 19.74 C-3.43 26.42, -1.5 33.4, 0.53 36.37" stroke="#000000" stroke-width="1" fill="none"></path></g><g transform="translate(540.7289984523962 95.85983257331367) rotate(0 0.3295103438114779 17.42141742668636)"><path d="M5.19 21.42 C4.09 26.14, 1.72 29.29, -1.23 38.17 M5.33 19.74 C3.94 26.34, 1.23 33.32, 0.53 36.37" stroke="#000000" stroke-width="1" fill="none"></path></g></g><mask></mask><g stroke-linecap="round" transform="translate(249.73370770262898 138.69232141406428) rotate(0 75.5 39.5)"><path d="M19.75 0 M19.75 0 C49.47 -1.3, 77.57 0.88, 131.25 0 M19.75 0 C45.6 -0.94, 71.33 -0.82, 131.25 0 M131.25 0 C145.44 0.3, 152.87 6.38, 151 19.75 M131.25 0 C143.72 0.15, 151.44 4.34, 151 19.75 M151 19.75 C151.56 28.96, 151.89 40.8, 151 59.25 M151 19.75 C150.59 30.99, 151.66 42.29, 151 59.25 M151 59.25 C150.61 70.44, 145.79 80.8, 131.25 79 M151 59.25 C148.84 72.52, 145.61 79.3, 131.25 79 M131.25 79 C98.45 80.5, 64.87 76.98, 19.75 79 M131.25 79 C100.2 78.4, 69.66 79.03, 19.75 79 M19.75 79 C7.13 78.08, 1.91 74.26, 0 59.25 M19.75 79 C8.03 77.18, -1.12 71.21, 0 59.25 M0 59.25 C-1.14 50.82, 0.63 41.27, 0 19.75 M0 59.25 C-0.29 46.82, -0.48 35.52, 0 19.75 M0 19.75 C-0.97 7.78, 7.89 -0.23, 19.75 0 M0 19.75 C0.28 7.88, 6.95 0.49, 19.75 0" stroke="#000000" stroke-width="1" fill="none"></path></g><g transform="translate(280.98374584960163 153.19232141406428) rotate(0 44.249961853027344 25)"><text x="44.249961853027344" y="0" font-family="Virgil, Segoe UI Emoji" font-size="20px" fill="#000000" text-anchor="middle" style="white-space: pre;" direction="ltr" dominant-baseline="text-before-edge">HTML</text><text x="44.249961853027344" y="25" font-family="Virgil, Segoe UI Emoji" font-size="20px" fill="#000000" text-anchor="middle" style="white-space: pre;" direction="ltr" dominant-baseline="text-before-edge">Rendering</text></g><g stroke-linecap="round"><g transform="translate(463.448551452629 178.3188386526059) rotate(0 -27.849827515166226 -0.11262192284351613)"><path d="M0.37 0.19 C-8.75 0.22, -45.8 0.94, -55.15 0.85 M-0.9 -0.76 C-10.13 -1.14, -46.75 -1.17, -56.07 -0.93" stroke="#000000" stroke-width="1" fill="none"></path></g><g transform="translate(463.448551452629 178.3188386526059) rotate(0 -27.849827515166226 -0.11262192284351613)"><path d="M-29.91 -10.52 C-35.87 -8.88, -44.67 -5.23, -56.9 -0.07 M-29.65 -10.89 C-38.04 -7.33, -47.49 -3.74, -56.7 -1.19" stroke="#000000" stroke-width="1" fill="none"></path></g><g transform="translate(463.448551452629 178.3188386526059) rotate(0 -27.849827515166226 -0.11262192284351613)"><path d="M-29.72 8.36 C-35.84 5.03, -44.69 3.71, -56.9 -0.07 M-29.46 7.99 C-38.01 5.32, -47.53 2.69, -56.7 -1.19" stroke="#000000" stroke-width="1" fill="none"></path></g></g><mask></mask><g stroke-linecap="round"><g transform="translate(243.28448895262898 171.68017034608124) rotate(0 -81.33796508003026 -22.398062711969004)"><path d="M-0.8 0.73 C-28.11 -6.86, -136.17 -37.99, -163.3 -45.53 M0.99 0.07 C-26.44 -7.43, -136.18 -37.39, -163.66 -44.6" stroke="#000000" stroke-width="1" fill="none"></path></g><g transform="translate(243.28448895262898 171.68017034608124) rotate(0 -81.33796508003026 -22.398062711969004)"><path d="M-132.56 -45.32 C-146.18 -45.08, -154.89 -45.89, -162.22 -46.11 M-133.09 -46.27 C-141.96 -47.46, -148.6 -46.83, -164.32 -45.17" stroke="#000000" stroke-width="1" fill="none"></path></g><g transform="translate(243.28448895262898 171.68017034608124) rotate(0 -81.33796508003026 -22.398062711969004)"><path d="M-137.88 -25.51 C-149.64 -32.16, -156.49 -39.9, -162.22 -46.11 M-138.41 -26.45 C-145.99 -32.64, -151.28 -37.03, -164.32 -45.17" stroke="#000000" stroke-width="1" fill="none"></path></g></g><mask></mask></svg>